<svg viewBox="0 0 44 48" fill="none" xmlns="http://www.w3.org/2000/svg"><path d="M43.218 7.906l-.065-.01A59.041 59.041 0 0 1 22.494.137a.952.952 0 0 0-.99.001A58.355 58.355 0 0 1 .974 7.873l-.192.033A.94.94 0 0 0 0 8.83V21.1a27.47 27.47 0 0 0 6.125 17.246c3.95 4.87 9.516 8.29 15.672 9.631a.964.964 0 0 0 .406 0c6.157-1.343 11.723-4.767 15.672-9.639A27.484 27.484 0 0 0 44 21.089V8.829a.94.94 0 0 0-.782-.923zM42.109 21.09c0 11.882-8.444 22.368-20.11 25.013-11.664-2.639-20.108-13.12-20.108-25V9.613A60.229 60.229 0 0 0 22 2.034a60.902 60.902 0 0 0 20.11 7.58V21.09z" fill="#D12F2F"/><path d="M21.979 6.812a.95.95 0 0 0 .466-.123l.01-.005.008-.005a.93.93 0 0 0 .358-1.274.953.953 0 0 0-1.29-.358l-.02.012a.933.933 0 0 0-.355 1.278.946.946 0 0 0 .823.475zm-4.163.146A62.709 62.709 0 0 1 5.012 11.39a.94.94 0 0 0-.733.914v8.786c0 1.015.07 2.04.206 3.047a.943.943 0 0 0 1.062.805.939.939 0 0 0 .811-1.054 20.962 20.962 0 0 1-.188-2.798v-8.045a64.603 64.603 0 0 0 12.46-4.393.934.934 0 0 0 .447-1.25.95.95 0 0 0-1.26-.443zm20.959 4.407a.942.942 0 0 0-.945.938v8.786c0 8.335-4.966 15.982-12.652 19.482a.934.934 0 0 0-.464 1.244.946.946 0 0 0 1.254.46 23.574 23.574 0 0 0 9.947-8.544c2.49-3.796 3.806-8.167 3.806-12.642v-8.786a.942.942 0 0 0-.946-.938zM21.794 41.781l-.037.01A.937.937 0 0 0 22 43.633a.95.95 0 0 0 .243-.031l.036-.01a.937.937 0 0 0 .672-1.146.946.946 0 0 0-1.156-.666zm12.013-26.06a1.055 1.055 0 0 0-1.524 0L19.373 29.02l-4.962-5.111a1.055 1.055 0 0 0-1.524 0 1.134 1.134 0 0 0 0 1.57l5.724 5.895c.42.434 1.104.433 1.524 0l13.672-14.082c.42-.433.42-1.136 0-1.57z" fill="#D12F2F"/></svg>