<svg viewBox="0 0 54 54" fill="none" xmlns="http://www.w3.org/2000/svg"><path d="M43.24 14.24a3.48 3.48 0 1 0 0-6.96 3.48 3.48 0 0 0 0 6.96z" stroke="#D12F2F" stroke-width="2" stroke-miterlimit="10" stroke-linecap="round"/><path d="M52.52 4.38a2.9 2.9 0 0 0-2.9-2.9l-17.256.002c-1.543 0-3.02-.08-3.876.775L2.123 28.622a2.192 2.192 0 0 0 0 3.102l20.154 20.153a2.194 2.194 0 0 0 3.101 0l26.365-26.365c.856-.855.775-2.297.775-3.875L52.52 4.38z" stroke="#D12F2F" stroke-width="2" stroke-miterlimit="10" stroke-linecap="round"/><path d="M20.166 29.835c.007.998.329 1.943.963 2.832l5.054-5.055a18.41 18.41 0 0 1-1.2-2.287c-.295-.69-.464-1.33-.516-1.928a3.46 3.46 0 0 1 .287-1.716c.241-.547.642-1.1 1.2-1.66a5.621 5.621 0 0 1 1.879-1.269c.68-.273 1.37-.41 2.07-.41.699 0 1.388.135 2.069.41.68.273 1.312.665 1.897 1.173l1.26-1.259 1.048 1.05-1.279 1.279c.903 1.156 1.341 2.357 1.317 3.603-.026 1.245-.47 2.556-1.335 3.929l-1.62-1.621c1.003-1.514 1.03-2.963.076-4.348l-4.692 4.692.838 1.448c.192.32.379.73.564 1.232.183.501.295 1.051.333 1.65a5.184 5.184 0 0 1-.238 1.86c-.197.642-.589 1.254-1.174 1.839-.623.623-1.28 1.072-1.974 1.344a5.308 5.308 0 0 1-2.116.382 5.827 5.827 0 0 1-2.147-.486 8.272 8.272 0 0 1-2.059-1.296l-1.564 1.564-1.05-1.049 1.564-1.565c-1.144-1.399-1.713-2.85-1.706-4.358.006-1.507.626-2.979 1.86-4.416l1.62 1.62c-.824.88-1.234 1.818-1.229 2.816zm3.186 4.674c.401.197.808.308 1.23.333.42.025.84-.051 1.26-.229.418-.177.832-.47 1.24-.877.366-.369.612-.741.733-1.117a2.83 2.83 0 0 0 .123-1.153 4.142 4.142 0 0 0-.334-1.23 15.638 15.638 0 0 0-.639-1.306l-4.786 4.786c.38.33.773.595 1.173.793zm6.78-13.953c-.8-.05-1.565.286-2.289 1.01-.33.331-.559.669-.686 1.012a2.284 2.284 0 0 0-.135 1.048c.038.357.133.725.287 1.106.153.382.343.776.571 1.182l4.464-4.462c-.675-.547-1.41-.846-2.212-.896z" fill="#D12F2F"/></svg>