<svg viewBox="0 0 56 50" fill="none" xmlns="http://www.w3.org/2000/svg"><path d="M55.404 19.748L28.86.282a1.453 1.453 0 0 0-1.72 0L.597 19.748a1.459 1.459 0 0 0-.315 2.037c.475.65 1.386.79 2.034.315L28 3.264 53.685 22.1a1.452 1.452 0 0 0 2.034-.315 1.459 1.459 0 0 0-.315-2.037z" fill="#D12F2F"/><path d="M48.37 22.43c-.803 0-1.454.653-1.454 1.458v23.197h-11.64V34.422c0-4.018-3.264-7.287-7.276-7.287-4.012 0-7.276 3.27-7.276 7.287v12.663H9.084V23.888c0-.805-.651-1.458-1.455-1.458-.803 0-1.455.653-1.455 1.458v24.655c0 .804.652 1.457 1.455 1.457h14.55a1.455 1.455 0 0 0 1.455-1.457v-14.12A4.374 4.374 0 0 1 28 30.05a4.374 4.374 0 0 1 4.366 4.372v14.12A1.455 1.455 0 0 0 33.82 50l14.55.001c.803 0 1.455-.652 1.455-1.457V23.888c0-.805-.652-1.458-1.455-1.458z" fill="#D12F2F"/></svg>