<svg width="61" height="53" fill="none" xmlns="http://www.w3.org/2000/svg"><path d="M33.76 34.564l-4.877.962c-.15.029-.263.19-.263.38v8.527c0 .119.045.233.121.306.056.052.123.08.192.08a.223.223 0 0 0 .079-.013l4.877-1.582c.138-.044.233-.197.233-.374v-7.906c0-.113-.04-.22-.11-.293a.272.272 0 0 0-.252-.087zm6.117-1.207l-3.936.775c-.15.031-.262.19-.262.38v7.631a.42.42 0 0 0 .121.305.28.28 0 0 0 .19.08.222.222 0 0 0 .08-.013l3.935-1.278c.137-.044.232-.197.232-.373v-7.126c0-.113-.04-.22-.11-.293a.274.274 0 0 0-.25-.088zm1.639 7.239c.055.052.121.08.19.08a.262.262 0 0 0 .079-.013l3.241-1.053c.137-.044.232-.197.232-.373v-6.49a.43.43 0 0 0-.11-.294.27.27 0 0 0-.25-.086l-3.241.638c-.152.03-.263.19-.263.38v6.903a.421.421 0 0 0 .122.308zm-7.708-17.899l-4.878.03c-.171 0-.31.173-.31.385v8.528c0 .109.037.213.104.286.057.065.132.1.209.1.01 0 .022 0 .033-.002l4.877-.65c.159-.021.279-.186.279-.383v-7.908c0-.103-.033-.2-.091-.272a.307.307 0 0 0-.223-.114zm6.116-.039l-3.935.024c-.171.002-.31.174-.31.385v7.63c0 .11.037.214.103.288a.286.286 0 0 0 .208.099c.011 0 .023 0 .034-.003l3.933-.525c.159-.02.279-.186.279-.383v-7.13a.427.427 0 0 0-.093-.273.263.263 0 0 0-.219-.112zm1.782 7.662a.23.23 0 0 0 .033-.003l3.241-.434c.158-.02.278-.185.278-.382V23.01c0-.103-.033-.2-.092-.273a.295.295 0 0 0-.22-.112l-3.241.021c-.172 0-.31.173-.31.385v6.903c0 .109.038.213.104.287a.27.27 0 0 0 .207.099z" fill="#ED1F24"/><path d="M59.713 21.315l-11.12-2.318-11.75-17.669a.31.31 0 0 0-.02-.023 1.054 1.054 0 0 0-.09-.104c-.004-.005-.01-.013-.016-.018-.004-.003-.005-.005-.01-.007a.85.85 0 0 0-.103-.08l-.024-.015a.91.91 0 0 0-.094-.052l-.041-.018a1.022 1.022 0 0 0-.09-.033c-.014-.005-.027-.01-.04-.013a.98.98 0 0 0-.122-.027l-.015-.002a1.194 1.194 0 0 0-.125-.011h-.051a1.37 1.37 0 0 0-.11.005l-.037.005a.917.917 0 0 0-.113.022l-.027.007a1.15 1.15 0 0 0-.137.047h-.003L9.428 12.278a.924.924 0 0 0-.325.23L.42 22.293a.673.673 0 0 0-.014.906c.179.214.472.337.776.337.086 0 .171-.01.257-.03l1.227-.284v20.473c0 .293.199.561.515.695l19.504 8.234a.19.19 0 0 1 .008.003l.03.01a.72.72 0 0 0 .093.03 2.414 2.414 0 0 0 .132.027 1.255 1.255 0 0 0 .168.014.982.982 0 0 0 .114-.005l.027-.002a.95.95 0 0 0 .11-.02l.016-.003a.455.455 0 0 0 .058-.016l24.844-7.469 11.52-3.464c.374-.112.624-.406.624-.734V22.072c0-.357-.295-.67-.716-.757zM5.145 23.828c0-.124.106-.23.251-.255l2.068-.357a.368.368 0 0 1 .263.053c.073.05.116.123.116.203v4.38c0 .137-.13.25-.295.26l-2.067.11H5.46a.357.357 0 0 1-.216-.07.245.245 0 0 1-.1-.19v-4.134h.001zm2.698 17.16c0 .085-.05.165-.134.214a.363.363 0 0 1-.29.03l-2.068-.628c-.124-.037-.207-.136-.207-.245v-4.133c0-.078.044-.153.119-.202a.363.363 0 0 1 .265-.051l2.067.382c.144.027.247.133.247.254v4.38h.001zm.015-6.568c0 .077-.04.148-.11.198a.357.357 0 0 1-.205.062c-.016 0-.03 0-.047-.002l-2.081-.26c-.155-.02-.268-.129-.268-.257v-4.158c0-.07.033-.135.093-.184a.34.34 0 0 1 .224-.076l2.082.011c.173.001.313.117.313.26v4.406h-.001zm4.961 13.05c0 .092-.057.176-.15.223a.367.367 0 0 1-.309.01l-2.618-1.106c-.105-.045-.172-.135-.172-.233v-9.32a.25.25 0 0 1 .117-.203.363.363 0 0 1 .266-.05l2.618.482c.144.027.247.132.247.254v9.944h.001zm0-12.43c0 .077-.04.149-.11.198a.358.358 0 0 1-.253.06l-2.645-.331c-.154-.019-.268-.128-.268-.257v-4.68a.24.24 0 0 1 .092-.183.34.34 0 0 1 .225-.075l2.644.014c.174.001.314.118.314.26v4.995h.001zm0-7.456c0 .136-.13.25-.295.26l-2.646.14-.021.002a.357.357 0 0 1-.216-.07.246.246 0 0 1-.098-.19v-4.658c0-.123.104-.229.251-.254l2.645-.457a.367.367 0 0 1 .263.052.245.245 0 0 1 .116.202v4.973h.001zm6.53 16.897a.25.25 0 0 1-.134.214.363.363 0 0 1-.289.03l-3.502-1.062c-.124-.038-.206-.136-.206-.245V38.11c0-.079.043-.154.118-.203a.363.363 0 0 1 .265-.051l3.503.648c.144.026.245.132.245.254v5.723zm0-8.624c0 .076-.04.149-.11.198a.358.358 0 0 1-.205.062c-.016 0-.03 0-.047-.002l-3.503-.437c-.155-.02-.268-.13-.268-.257v-5.333a.24.24 0 0 1 .092-.184.341.341 0 0 1 .224-.076l3.503.02c.173.002.313.118.313.261v5.748h.001zm0-8.624c0 .137-.13.251-.295.26l-3.502.188h-.022a.35.35 0 0 1-.214-.07.241.241 0 0 1-.1-.19v-5.333c0-.124.104-.23.25-.255l3.503-.605a.363.363 0 0 1 .263.053.245.245 0 0 1 .116.202v5.75h.001zm27.667 16.68l-22.952 6.9V17.9L35.935 3.208l11.08 16.664v24.04zm7.273-4.833c0 .118-.096.222-.235.251l-3.416.74a.36.36 0 0 1-.272-.045.246.246 0 0 1-.122-.205v-5.883c0-.133.12-.245.28-.26l3.416-.304a.366.366 0 0 1 .244.065c.066.05.105.12.105.194v5.447zm0-9.078c0 .143-.14.26-.313.26l-3.415.015h-.001a.357.357 0 0 1-.223-.076.241.241 0 0 1-.092-.184v-5.883c0-.075.04-.148.11-.197a.362.362 0 0 1 .251-.061l3.416.42c.155.02.268.13.268.259v5.447zm4.692 8.061c0 .118-.098.222-.235.253l-2.682.581a.357.357 0 0 1-.272-.045.248.248 0 0 1-.123-.206v-5.148c0-.133.121-.244.281-.259l2.682-.242a.36.36 0 0 1 .246.065c.067.05.105.12.105.194v4.807h-.002zm0-8.08c0 .143-.14.26-.314.26l-2.682.01h-.001a.35.35 0 0 1-.223-.076.243.243 0 0 1-.093-.184v-5.19c0-.075.04-.147.109-.196a.364.364 0 0 1 .252-.061l2.682.33c.155.02.27.13.27.258v4.848z" fill="#fff"/></svg>