<svg width="61" height="53" fill="none" xmlns="http://www.w3.org/2000/svg"><path fill="#fff" d="M49.6 22.893h11.112v7.398H49.6zM5.15 19.194h15.743v17.57L5.15 34.913v-15.72zm27.374 7.566l-4.886 1.285c-.15.04-.263.255-.263.507v11.394c0 .16.045.312.122.41.055.07.123.106.191.106a.173.173 0 0 0 .08-.017l4.886-2.114c.137-.059.233-.263.233-.499V27.268a.69.69 0 0 0-.11-.392c-.07-.098-.163-.14-.253-.116zm6.128-1.613l-3.942 1.036c-.151.042-.264.255-.264.508v10.197c0 .159.046.311.122.407.056.07.123.107.19.107a.172.172 0 0 0 .08-.018l3.942-1.707c.138-.059.233-.263.233-.498v-9.522a.69.69 0 0 0-.11-.392c-.069-.098-.161-.14-.251-.118zm1.642 9.673c.055.07.121.106.19.106a.204.204 0 0 0 .08-.017l3.247-1.406c.137-.06.232-.264.232-.499v-8.673a.69.69 0 0 0-.11-.392c-.07-.098-.16-.14-.25-.115l-3.248.853c-.152.04-.263.255-.263.507v9.224a.673.673 0 0 0 .122.412z"/><path d="M59.997 21.09l-11.121-2.32-11.75-17.668a.31.31 0 0 0-.019-.023l-.027-.035a1.054 1.054 0 0 0-.062-.068c-.006-.006-.01-.014-.018-.02-.004-.001-.005-.004-.009-.006a.85.85 0 0 0-.104-.08l-.024-.015a.91.91 0 0 0-.093-.051c-.014-.007-.028-.012-.042-.02a1.022 1.022 0 0 0-.09-.032l-.04-.013a1.2 1.2 0 0 0-.122-.027L36.461.71a1.194 1.194 0 0 0-.125-.011h-.051c-.036 0-.073.002-.11.006a.917.917 0 0 0-.15.026l-.027.007a1.15 1.15 0 0 0-.137.047l-.003.001L9.712 12.051a.924.924 0 0 0-.326.23L.704 22.067a.673.673 0 0 0-.015.907c.179.213.472.336.777.336.085 0 .17-.01.256-.029l1.227-.285v20.473c0 .293.2.562.515.695l19.505 8.234a.19.19 0 0 1 .008.003l.029.01c.03.012.061.022.093.031l.042.01c.03.007.06.012.09.017a1.255 1.255 0 0 0 .168.014.982.982 0 0 0 .114-.006l.027-.002a.95.95 0 0 0 .11-.02c.006 0 .011-.002.017-.003a.455.455 0 0 0 .057-.015l24.844-7.47 11.52-3.464c.374-.112.624-.405.624-.734V21.846c0-.357-.295-.67-.715-.757zM5.428 23.601c0-.124.106-.23.251-.255l2.068-.357a.368.368 0 0 1 .263.053c.074.05.116.123.116.203v4.38c0 .137-.13.25-.295.26l-2.066.11h-.022a.357.357 0 0 1-.216-.07.245.245 0 0 1-.1-.19v-4.134h.001zm2.698 17.16c0 .085-.05.165-.134.214a.363.363 0 0 1-.29.03l-2.068-.628c-.124-.037-.207-.135-.207-.245V36c0-.078.044-.153.119-.202a.363.363 0 0 1 .266-.05l2.066.381c.144.027.247.133.247.254v4.38h.001zm.015-6.567c0 .076-.04.147-.11.197a.357.357 0 0 1-.205.063c-.016 0-.03-.002-.047-.003l-2.081-.26c-.155-.02-.268-.129-.268-.257v-4.158c0-.069.033-.135.093-.184a.34.34 0 0 1 .224-.076l2.082.011c.173.001.313.117.313.26v4.407zm4.961 13.05c0 .091-.057.175-.15.222a.367.367 0 0 1-.309.01l-2.618-1.106c-.105-.045-.172-.134-.172-.233v-9.32a.25.25 0 0 1 .117-.203.363.363 0 0 1 .266-.05l2.618.482c.144.027.247.132.247.254v9.944h.001zm0-12.43c0 .076-.04.148-.11.197a.358.358 0 0 1-.253.06l-2.644-.33c-.155-.02-.269-.129-.269-.258v-4.68a.24.24 0 0 1 .093-.183.34.34 0 0 1 .224-.075l2.644.014c.174.001.314.118.314.26v4.995h.001zm0-7.457c0 .136-.13.251-.295.26l-2.646.14-.021.002a.357.357 0 0 1-.216-.07.246.246 0 0 1-.098-.19v-4.658c0-.123.104-.229.251-.254l2.645-.457a.367.367 0 0 1 .263.053.245.245 0 0 1 .116.201v4.973h.001zm6.53 16.897a.25.25 0 0 1-.134.214.363.363 0 0 1-.288.031l-3.503-1.063c-.124-.038-.205-.136-.205-.245v-5.307c0-.08.042-.155.117-.204a.363.363 0 0 1 .265-.05l3.503.647c.144.026.246.132.246.254v5.723zm0-8.624c0 .076-.04.15-.109.198a.358.358 0 0 1-.205.062c-.016 0-.031 0-.048-.002l-3.503-.437c-.155-.02-.268-.13-.268-.257v-5.333a.24.24 0 0 1 .092-.184.341.341 0 0 1 .224-.076l3.503.021c.173.001.313.117.313.26v5.748h.002zm0-8.624c0 .137-.129.252-.294.26l-3.503.188h-.021a.35.35 0 0 1-.215-.07.241.241 0 0 1-.1-.19v-5.333c0-.123.104-.23.25-.255l3.503-.604a.363.363 0 0 1 .263.052.245.245 0 0 1 .116.202v5.75h.002zM47.3 43.687l-22.952 6.9V17.674l11.87-14.692 11.08 16.664v24.04zm7.273-4.833c0 .118-.096.222-.234.251l-3.416.74a.36.36 0 0 1-.272-.045.246.246 0 0 1-.123-.205v-5.883c0-.133.121-.245.28-.259l3.416-.305a.366.366 0 0 1 .244.065c.067.05.105.12.105.194v5.447zm0-9.078c0 .144-.14.26-.313.26l-3.415.015h-.001a.357.357 0 0 1-.223-.076.241.241 0 0 1-.092-.184v-5.883c0-.075.04-.148.11-.197a.362.362 0 0 1 .252-.06l3.415.42c.155.019.269.129.269.258v5.447h-.002zm4.692 8.061c0 .118-.098.222-.235.253l-2.682.581a.357.357 0 0 1-.272-.045.248.248 0 0 1-.123-.206v-5.148c0-.133.122-.244.282-.259l2.682-.242a.36.36 0 0 1 .245.065c.067.05.106.12.106.194v4.807h-.003zm0-8.08c0 .143-.14.26-.314.26l-2.682.01h-.001a.35.35 0 0 1-.223-.076.243.243 0 0 1-.093-.184v-5.19c0-.075.04-.147.11-.196a.364.364 0 0 1 .251-.06l2.682.33c.155.018.27.129.27.257v4.848z" fill="#fff"/><path fill="#fff" d="M49.6 32.14h10.186v8.323H49.6z"/></svg>