<svg width="51" height="52" fill="none" xmlns="http://www.w3.org/2000/svg"><path d="M27.976 36.929l-4.097.65a.26.26 0 0 0-.221.257v5.767a.262.262 0 0 0 .33.252l4.096-1.07a.26.26 0 0 0 .195-.252v-5.347a.26.26 0 0 0-.303-.257zm5.138-.817l-3.306.525a.262.262 0 0 0-.22.257v5.16a.259.259 0 0 0 .261.26.228.228 0 0 0 .067-.008l3.305-.864a.26.26 0 0 0 .195-.252v-4.82a.26.26 0 0 0-.092-.198.264.264 0 0 0-.21-.06zm1.376 4.896a.263.263 0 0 0 .227.045l2.723-.711a.26.26 0 0 0 .195-.253V35.7a.26.26 0 0 0-.303-.256l-2.723.432a.26.26 0 0 0-.22.257V40.8a.259.259 0 0 0 .102.208zm-6.474-12.105l-4.098.021a.26.26 0 0 0-.26.26v5.767c0 .074.031.145.088.194.047.044.11.067.175.067h.027l4.098-.44a.26.26 0 0 0 .234-.26v-5.348a.26.26 0 0 0-.077-.184.283.283 0 0 0-.187-.077zm5.138-.026l-3.306.017a.262.262 0 0 0-.26.26v5.16a.26.26 0 0 0 .261.262c.01 0 .02 0 .028-.003l3.305-.354a.26.26 0 0 0 .233-.26v-4.822a.256.256 0 0 0-.077-.184.241.241 0 0 0-.184-.076zm1.496 5.182a.24.24 0 0 0 .028-.002l2.723-.294a.26.26 0 0 0 .234-.258v-4.39a.256.256 0 0 0-.078-.184.272.272 0 0 0-.185-.076l-2.723.014a.26.26 0 0 0-.26.26v4.669a.26.26 0 0 0 .087.193.25.25 0 0 0 .174.068zm-6.594-13.175l-4.097-.608a.263.263 0 0 0-.3.258V26.3c0 .14.109.254.249.26l4.097.188h.012a.26.26 0 0 0 .262-.26V21.14a.26.26 0 0 0-.223-.257zm1.532.529v5.16c0 .139.11.253.249.26l3.305.152h.012a.261.261 0 0 0 .261-.26v-4.822a.262.262 0 0 0-.223-.258l-3.305-.49a.263.263 0 0 0-.21.06.264.264 0 0 0-.09.198zm5.05 5.642l2.723.126a.26.26 0 0 0 .274-.259v-4.39a.262.262 0 0 0-.224-.257l-2.723-.405a.263.263 0 0 0-.3.258v4.668c0 .138.11.253.25.26z" fill="#fff"/><path d="M49.55 20.39l-9.238-2.318L30.551.403a.298.298 0 0 0-.016-.023c-.006-.012-.014-.023-.022-.035-.017-.023-.033-.046-.052-.068l-.014-.02c-.004-.001-.005-.004-.008-.006a.74.74 0 0 0-.087-.08c-.005-.005-.013-.01-.02-.015a.747.747 0 0 0-.077-.051L30.22.086a.766.766 0 0 0-.075-.033L30.112.04a.799.799 0 0 0-.101-.027l-.012-.002A.829.829 0 0 0 29.895 0h-.043a.814.814 0 0 0-.09.006.651.651 0 0 0-.125.026l-.023.007a.856.856 0 0 0-.114.047l-.002.001L7.776 11.352a.788.788 0 0 0-.27.23L.291 21.368a.777.777 0 0 0-.012.907.786.786 0 0 0 .858.307l1.02-.285V42.77a.78.78 0 0 0 .428.695l16.203 8.234a.204.204 0 0 1 .007.003l.024.01a.653.653 0 0 0 .078.031l.034.01c.026.007.05.012.076.017a.869.869 0 0 0 .14.014.678.678 0 0 0 .094-.006l.022-.002a.67.67 0 0 0 .092-.02l.013-.003a.331.331 0 0 0 .048-.015l20.64-7.47 9.57-3.464a.782.782 0 0 0 .518-.734V21.147a.783.783 0 0 0-.594-.756zM4.218 22.904c0-.124.088-.23.209-.255l1.718-.357a.26.26 0 0 1 .315.256v4.38a.261.261 0 0 1-.245.26l-1.717.11H4.48a.263.263 0 0 1-.263-.26v-4.134h.001zm2.242 17.16a.263.263 0 0 1-.112.215.263.263 0 0 1-.24.03l-1.719-.629a.26.26 0 0 1-.171-.245v-4.133a.26.26 0 0 1 .319-.253l1.717.383a.26.26 0 0 1 .205.253v4.38h.001zm.012-6.567a.26.26 0 0 1-.261.26l-.04-.002-1.729-.26a.261.261 0 0 1-.222-.258v-4.158c0-.069.027-.135.077-.184a.253.253 0 0 1 .186-.076l1.73.011c.144.002.26.117.26.26v4.407zm4.122 13.05a.26.26 0 0 1-.262.26.256.256 0 0 1-.12-.028l-2.175-1.106a.262.262 0 0 1-.143-.233v-9.32a.26.26 0 0 1 .318-.253l2.175.482a.26.26 0 0 1 .206.254v9.944zm0-12.43a.263.263 0 0 1-.302.257l-2.197-.33a.26.26 0 0 1-.223-.258v-4.68a.26.26 0 0 1 .077-.183.254.254 0 0 1 .186-.075l2.197.014c.144.001.26.118.26.26v4.995h.002zm0-7.457a.262.262 0 0 1-.245.26l-2.199.14-.017.002a.265.265 0 0 1-.18-.07.265.265 0 0 1-.08-.19v-4.657a.26.26 0 0 1 .208-.255l2.197-.457a.264.264 0 0 1 .218.053.258.258 0 0 1 .097.201v4.973zm5.425 16.897a.26.26 0 0 1-.352.245l-2.91-1.063a.26.26 0 0 1-.17-.245v-5.307a.26.26 0 0 1 .318-.255l2.91.648a.26.26 0 0 1 .204.255v5.722zm0-8.623a.258.258 0 0 1-.262.26c-.013 0-.025 0-.04-.003l-2.91-.437a.261.261 0 0 1-.222-.257v-5.333a.26.26 0 0 1 .262-.26l2.91.021a.26.26 0 0 1 .26.26v5.748h.002zm0-8.625a.262.262 0 0 1-.245.26l-2.91.188h-.018a.26.26 0 0 1-.261-.26v-5.333a.26.26 0 0 1 .208-.255l2.91-.604a.26.26 0 0 1 .315.254v5.75zm22.984 16.68l-19.068 6.9V16.975l9.863-14.691 9.205 16.664v24.04zm6.043-4.833a.26.26 0 0 1-.195.251l-2.838.74a.263.263 0 0 1-.328-.251v-5.882c0-.133.1-.245.232-.259l2.838-.305a.261.261 0 0 1 .29.259v5.447zm0-9.078a.26.26 0 0 1-.26.26l-2.837.015h-.002a.262.262 0 0 1-.262-.26V23.21a.261.261 0 0 1 .301-.258l2.838.421a.26.26 0 0 1 .223.258v5.447h-.001zm3.897 8.061a.263.263 0 0 1-.195.253l-2.228.581a.26.26 0 0 1-.328-.251v-5.147c0-.134.1-.245.234-.26l2.228-.242a.263.263 0 0 1 .292.26v4.806h-.003zm0-8.08a.26.26 0 0 1-.26.26l-2.228.01h-.002a.262.262 0 0 1-.262-.26v-5.19a.26.26 0 0 1 .3-.257l2.228.33a.261.261 0 0 1 .224.258v4.848z" fill="#fff"/></svg>