<svg viewBox="0 0 30 29" fill="none" xmlns="http://www.w3.org/2000/svg"><path d="M11.58 13.336c-.002.643 0 1.286.004 1.93 1.051.035 2.106.018 3.157.035-.464 2.39-3.637 3.166-5.316 1.604-1.727-1.37-1.645-4.374.15-5.646 1.255-1.027 3.04-.773 4.294.116a19.9 19.9 0 0 0 1.4-1.486c-1.044-.853-2.325-1.461-3.688-1.396-2.844-.098-5.459 2.455-5.506 5.37-.182 2.383 1.347 4.72 3.505 5.563 2.151.848 4.908.27 6.282-1.71.906-1.251 1.101-2.861.996-4.374-1.76-.014-3.519-.011-5.277-.006zm10.286-.008c-.006-.537-.008-1.078-.01-1.615h-1.57c-.004.538-.01 1.075-.012 1.615-.527.003-1.052.006-1.577.011v1.608l1.577.016c.005.538.005 1.075.01 1.613h1.571c.003-.538.005-1.075.01-1.616l1.577-.013v-1.608c-.525-.005-1.052-.005-1.576-.01z" fill="#fff"/><path d="M28.504 14.5c0 7.74-6.165 14-13.753 14S.998 22.24.998 14.5 7.163.5 14.75.5s13.753 6.26 13.753 14z" stroke="#F2F2F2"/></svg>