<svg viewBox="0 0 231 63" fill="none" xmlns="http://www.w3.org/2000/svg"><path d="M77.655 13.348l-1.607 3.737h-3.035L80.153.712h3.036l7.319 16.373h-3.035l-1.607-3.737h-8.211zm7.14-2.492L81.76 4.093l-3.034 6.763h6.07zm11.068 6.229V.712h2.857v13.703h7.497v2.67H95.863zm20.172-13.882v4.628h7.32v2.491h-7.32v6.763h-2.856V.712h11.068v2.491h-8.212zm16.602 10.322l-1.606 3.738h-3.035L135.316.89h3.034l7.32 16.373h-3.036l-1.606-3.738h-8.39zm6.963-2.491l-3.035-6.763-3.035 6.763h6.07zM73.013 23.135h9.105c3.57 0 6.248.712 8.033 1.958 1.785 1.246 2.499 3.381 2.499 6.229 0 2.847-.893 4.983-2.5 6.407-1.784 1.423-4.105 2.135-7.497 2.135h-2.856v8.898h-6.784V23.135zm6.962 4.627v7.475h1.785c1.429 0 2.321-.356 3.035-.89s1.071-1.424 1.071-2.67c0-1.245-.357-2.313-1.07-2.847-.715-.712-1.786-1.068-3.036-1.068h-1.785zm16.067-4.627h10.175c3.392 0 5.891.534 7.498 1.602 1.607 1.068 2.5 2.847 2.5 4.983 0 1.602-.358 3.025-1.25 4.093-.893 1.068-2.143 1.78-3.75 2.136 1.429.534 2.5 1.958 3.214 4.271l3.035 8.542h-7.14l-2.322-6.94c-.357-1.068-.892-1.958-1.428-2.314-.714-.356-1.606-.712-2.856-.712h-1.071v9.966h-6.784l.179-25.627zm6.783 4.627v6.585h2.321c1.428 0 2.678-.356 3.392-.89s1.071-1.423 1.071-2.491-.357-1.958-1.25-2.492c-.892-.534-2.142-.89-3.927-.89h-1.607v.178zm29.455-5.16c3.928 0 7.14 1.245 9.283 3.559 2.32 2.313 3.392 5.695 3.392 9.788 0 4.271-1.071 7.475-3.392 9.788-2.32 2.314-5.355 3.56-9.283 3.56-4.106 0-7.14-1.246-9.461-3.56-2.32-2.313-3.392-5.695-3.392-9.788 0-4.271 1.071-7.475 3.392-9.788 2.32-2.492 5.534-3.56 9.461-3.56zm0 4.983c-1.785 0-3.213.712-4.284 2.313-1.071 1.602-1.607 3.56-1.607 6.051 0 2.492.536 4.627 1.607 6.05 1.07 1.603 2.499 2.314 4.284 2.314 1.785 0 3.214-.711 4.285-2.313 1.07-1.602 1.606-3.56 1.606-6.229 0-2.491-.535-4.627-1.606-6.05-1.072-1.424-2.5-2.136-4.285-2.136zm21.244-4.45h6.783v16.017c0 3.382-.714 6.051-2.142 7.653-1.428 1.602-3.57 2.491-6.605 2.491-.714 0-1.607 0-2.32-.178l-2.143-.534V42.89c.357.178.714.178 1.071.356.357 0 .714.178 1.071.178 1.607 0 2.678-.534 3.213-1.423.715-.89 1.072-2.492 1.072-4.627V23.135zm11.961 0h17.852v4.805h-11.068v5.161h10.354v4.983h-10.354v5.695h11.425v4.983h-18.209V23.135zm43.915.89l-.536 5.34c-.893-.535-1.964-1.069-3.035-1.246-1.07-.356-2.142-.356-3.213-.356-2.5 0-4.641.711-6.07 2.313-1.606 1.424-2.32 3.56-2.32 6.051s.714 4.45 2.32 6.05c1.607 1.425 3.57 2.314 6.248 2.314 1.072 0 1.964-.178 3.035-.355a11.372 11.372 0 0 0 3.214-1.068l.357 5.695c-1.25.356-2.5.534-3.75.711-1.249.178-2.499.178-3.748.178-4.642 0-8.212-1.245-10.89-3.559-2.677-2.314-3.927-5.695-3.927-9.966 0-4.093 1.25-7.297 3.927-9.61 2.5-2.314 6.07-3.56 10.533-3.56 1.428 0 2.856.178 4.106.356 1.25-.178 2.499.178 3.749.712zm1.963-.89H231v5.161h-6.427v20.466h-6.783V28.296h-6.427v-5.16zm-138.35 31.5c.536-.178 1.428-.177 2.142-.177 1.429 0 2.321.355 3.035.89.714.533 1.25 1.423 1.25 2.669a4.287 4.287 0 0 1-1.25 3.025c-.714.712-1.964 1.068-3.392 1.068-.714 0-1.428 0-1.785-.178v-7.297zm1.428 6.407h.714c1.786 0 2.857-.89 2.857-2.847 0-1.602-.893-2.67-2.678-2.67h-.893v5.517zm11.247-2.313h-2.856v2.135h3.213v1.068h-4.642v-7.297h4.463v1.068h-3.034v1.958h2.856v1.068zm2.32 1.779c.357.178 1.071.534 1.786.534.892 0 1.428-.356 1.428-1.068 0-.533-.357-.89-1.25-1.245-1.25-.356-1.964-1.068-1.964-2.136 0-1.246 1.071-2.135 2.678-2.135.893 0 1.428.177 1.785.355l-.357 1.068c-.178-.178-.714-.356-1.428-.356-.892 0-1.25.534-1.25.89 0 .534.358.89 1.429 1.246 1.25.534 1.963 1.068 1.963 2.135 0 1.246-.892 2.314-2.856 2.314-.714 0-1.607-.178-1.964-.534v-1.068zm7.855 1.424h-1.25v-7.297h1.25v7.297zm8.39-.178c-.535.178-1.428.356-2.499.356-1.25 0-2.142-.356-2.856-1.068-.714-.712-1.071-1.601-1.071-2.67 0-2.313 1.607-3.915 4.106-3.915.892 0 1.606.178 1.963.356l-.357 1.068c-.357-.178-.892-.356-1.785-.356-1.606 0-2.677.89-2.677 2.67 0 1.78 1.07 2.67 2.677 2.67.536 0 .893 0 1.071-.179v-1.78h-1.25V57.84h2.678v3.915zm2.321.178v-7.474h1.607l1.963 3.203c.536.89.893 1.78 1.25 2.491 0-1.067-.179-1.957-.179-3.025v-2.67h1.25v7.475h-1.428l-1.964-3.203c-.535-.89-.892-1.78-1.428-2.492v5.874l-1.071-.179zm13.032-1.958l-.714 2.136h-1.428l2.32-7.475h1.786l2.5 7.475h-1.429l-.714-2.136h-2.32zm2.142-1.068l-.535-1.78c-.179-.533-.179-.889-.357-1.423-.179.356-.179.89-.357 1.424l-.536 1.78h1.785zm4.106 3.026v-7.474h1.607l1.963 3.203c.536.89.893 1.78 1.25 2.491-.179-1.067-.179-1.957-.179-3.025v-2.67h1.25v7.475h-1.428l-1.964-3.203c-.535-.89-.892-1.78-1.428-2.492v5.874c.179-.179-1.071-.179-1.071-.179zm8.39-7.297c.536-.178 1.428-.177 2.142-.177 1.428 0 2.32.355 3.035.89.714.533 1.25 1.423 1.25 2.669a4.287 4.287 0 0 1-1.25 3.025c-.714.712-1.964 1.068-3.392 1.068-.714 0-1.428 0-1.785-.178v-7.297zm1.428 6.407h.714c1.785 0 2.856-.89 2.856-2.847 0-1.602-.892-2.67-2.677-2.67h-.893v5.517zm15.532.712c-.358.178-1.072.356-1.964.356-2.32 0-3.749-1.424-3.749-3.737 0-2.492 1.785-3.915 3.927-3.915.893 0 1.607.177 1.786.355l-.358 1.068c-.357-.178-.892-.356-1.428-.356-1.606 0-2.677.89-2.677 2.67 0 1.601.892 2.67 2.677 2.67.536 0 1.071-.179 1.428-.357 0 .178.358 1.246.358 1.246zm8.211-3.559c0 2.491-1.606 3.915-3.57 3.915-2.142 0-3.392-1.602-3.392-3.737 0-2.314 1.428-3.915 3.57-3.915 2.143 0 3.392 1.601 3.392 3.737zm-5.534.178c0 1.601.714 2.67 2.142 2.67 1.25 0 2.143-1.247 2.143-2.848 0-1.424-.715-2.67-2.143-2.67s-2.142 1.246-2.142 2.848zm7.676 3.559v-7.474h1.607l1.963 3.203c.536.89.893 1.78 1.25 2.491-.179-1.067-.179-1.957-.179-3.025v-2.67h1.25v7.475h-1.428l-1.964-3.203c-.535-.89-.892-1.78-1.428-2.492v5.874c.179-.179-1.071-.179-1.071-.179zm8.212-1.424c.357.178 1.071.534 1.785.534.893 0 1.428-.356 1.428-1.068 0-.533-.357-.89-1.25-1.245-1.249-.356-1.963-1.068-1.963-2.136 0-1.246 1.071-2.135 2.678-2.135.892 0 1.428.177 1.785.355l-.357 1.068c-.179-.178-.714-.356-1.428-.356-.893 0-1.25.534-1.25.89 0 .534.357.89 1.428 1.246 1.25.534 1.964 1.068 1.964 2.135 0 1.246-.893 2.314-2.856 2.314-.714 0-1.607-.178-1.964-.534v-1.068zm8.033-4.805h-2.142v-1.068h5.713v1.068h-2.143v6.229h-1.428v-6.229zm5.356-1.068c.535 0 1.25-.177 2.142-.177 1.07 0 1.785.177 2.32.533.357.356.714.89.714 1.424 0 .89-.714 1.602-1.428 1.958.536.178.893.712 1.071 1.423.179.89.357 1.78.536 2.136h-1.428c-.179-.178-.357-.89-.536-1.78-.178-.89-.535-1.245-1.428-1.245h-.714v3.025h-1.428l.179-7.297zm1.25 3.382h.892c.892 0 1.428-.534 1.428-1.246 0-.89-.536-1.246-1.428-1.246h-.893v2.492zm7.14-3.382v4.271c0 1.424.535 2.136 1.606 2.136 1.071 0 1.607-.712 1.607-2.136v-4.27h1.428v4.27c0 2.314-1.25 3.382-3.035 3.382-1.785 0-2.856-.89-2.856-3.382v-4.27h1.25zm12.139 7.119c-.358.178-1.072.356-1.964.356-2.32 0-3.749-1.424-3.749-3.737 0-2.492 1.785-3.915 3.927-3.915.893 0 1.607.177 1.786.355l-.358 1.068c-.357-.178-.892-.356-1.428-.356-1.606 0-2.677.89-2.677 2.67 0 1.601.892 2.67 2.677 2.67.536 0 1.071-.179 1.428-.357l.358 1.246zm3.749-6.051h-2.142v-1.068h5.534v1.068h-2.142v6.229h-1.25v-6.229zm6.605 6.229h-1.428v-7.297h1.428v7.297zm8.926-3.737c0 2.491-1.607 3.915-3.57 3.915-2.142 0-3.392-1.602-3.392-3.737 0-2.314 1.428-3.915 3.57-3.915 2.143 0 3.392 1.601 3.392 3.737zm-5.534.178c0 1.601.714 2.67 2.142 2.67 1.25 0 2.143-1.247 2.143-2.848 0-1.424-.715-2.67-2.143-2.67s-2.142 1.246-2.142 2.848zm7.676 3.559v-7.474h1.607l1.963 3.203c.536.89.893 1.78 1.25 2.491 0-1.067-.179-1.957-.179-3.025v-2.67H231v7.475h-1.428l-1.964-3.203c-.535-.89-.892-1.78-1.428-2.492v5.874c.179-.179-1.071-.179-1.071-.179z" fill="#F7F7F7"/><path d="M28.92 19.22c2.499 1.78 4.463 4.094 6.426 6.407-.892 2.492-1.785 4.627-3.035 6.94.358-.533.893-1.067 1.25-1.6.893-1.425 1.964-2.848 2.856-4.272C41.773 18.33 46.057 9.255 49.627 0H.18v18.686c3.213-2.491 7.14-4.093 11.246-4.449 6.427-.712 12.318 1.246 17.495 4.983z" fill="#D21515"/><path d="M18.03 20.288c-4.82-1.424-11.068 0-14.638 3.56C-.714 27.94-.893 35.77 2.856 40.22c4.82 5.873 13.568 4.627 19.459 1.246 3.748-2.136 6.783-4.983 9.461-8.365-3.392-5.16-7.676-11.034-13.746-12.813z" fill="#D21515"/><path d="M63.016 0c-4.463 9.254-9.461 18.33-15.174 26.873-1.606 2.491-3.392 4.983-5.177 7.474 3.035 5.695 6.427 11.746 9.283 17.797H41.594c-1.606-3.025-3.213-6.229-4.82-9.254 1.785-2.314 3.214-4.271 4.82-7.297.179-.178.179-.356.357-.534-1.785 2.314-3.748 4.45-5.89 6.585-5.535 5.34-11.961 9.432-19.816 10.322-5.713.712-11.782-.712-16.245-4.271V63h62.838l.178-63z" fill="#D21515"/></svg>