<svg viewBox="0 0 30 29" fill="none" xmlns="http://www.w3.org/2000/svg"><path d="M23.94 9.455a7.088 7.088 0 0 1-2.048.562 3.577 3.577 0 0 0 1.568-1.976c-.69.41-1.452.707-2.265.867a3.559 3.559 0 0 0-2.603-1.128 3.569 3.569 0 0 0-3.473 4.385 10.12 10.12 0 0 1-7.35-3.731 3.557 3.557 0 0 0-.484 1.796 3.57 3.57 0 0 0 1.587 2.972 3.552 3.552 0 0 1-1.616-.447v.045c0 1.73 1.23 3.174 2.861 3.502a3.58 3.58 0 0 1-1.61.061 3.57 3.57 0 0 0 3.33 2.48 7.147 7.147 0 0 1-5.28 1.479 10.08 10.08 0 0 0 5.467 1.605c6.56 0 10.147-5.442 10.147-10.162 0-.154-.003-.309-.01-.462a7.23 7.23 0 0 0 1.779-1.848z" fill="#fff"/><path d="M29.002 14.5c0 7.74-6.165 14-13.753 14s-13.753-6.26-13.753-14S7.66.5 15.249.5s13.753 6.26 13.753 14z" stroke="#fff"/></svg>