<svg viewBox="0 0 29 29" fill="none" xmlns="http://www.w3.org/2000/svg"><path d="M21.262 11.538c0-1.243-.9-2.243-2.01-2.243-1.505-.072-3.04-.1-4.607-.1h-.489a96.82 96.82 0 0 0-4.607.1c-1.108 0-2.007 1.005-2.007 2.249a41.17 41.17 0 0 0-.095 2.95c-.003.984.027 1.967.092 2.954 0 1.243.9 2.252 2.007 2.252a99.67 99.67 0 0 0 4.852.105 93.166 93.166 0 0 0 4.851-.105c1.111 0 2.01-1.009 2.01-2.252.065-.987.095-1.97.093-2.956a41.303 41.303 0 0 0-.09-2.954zm-8.193 5.667v-5.43l3.94 2.714-3.94 2.716z" fill="#fff"/><path d="M28.5 14.5c0 7.74-6.165 14-13.753 14S.994 22.24.994 14.5 7.159.5 14.747.5 28.5 6.76 28.5 14.5z" stroke="#fff"/></svg>