<svg viewBox="0 0 29 29" fill="none" xmlns="http://www.w3.org/2000/svg">
<path d="M6.95279 4.80968H4.58491V3.26805C4.58491 2.68909 4.97145 2.55412 5.24371 2.55412C5.51534 2.55412 6.91469 2.55412 6.91469 2.55412V0.0089165L4.61341 5.98173e-08C2.05877 5.98173e-08 1.47741 1.89829 1.47741 3.11309V4.80968H1.087e-07V7.43236H1.47741C1.47741 10.7982 1.47741 14.8537 1.47741 14.8537H4.58491C4.58491 14.8537 4.58491 10.7582 4.58491 7.43236H6.68178L6.95279 4.80968Z" transform="translate(11 7)" fill="white"/>
<path d="M28.0064 14.5C28.0064 22.2401 21.8409 28.5 14.2532 28.5C6.66558 28.5 0.5 22.2401 0.5 14.5C0.5 6.75989 6.66558 0.5 14.2532 0.5C21.8409 0.5 28.0064 6.75989 28.0064 14.5Z" stroke="white"/>
</svg>
