<svg viewBox="0 0 56 50" fill="none" xmlns="http://www.w3.org/2000/svg">
<path d="M55.4044 19.7485L28.8596 0.281493C28.3477 -0.093831 27.6523 -0.093831 27.1407 0.281493L0.595609 19.7485C-0.0527647 20.2241 -0.19364 21.136 0.281156 21.7854C0.755953 22.4348 1.6665 22.5757 2.31476 22.1004L28 3.2636L53.6853 22.1002C53.9443 22.2903 54.2453 22.3818 54.5436 22.3818C54.9916 22.3818 55.4337 22.1753 55.7188 21.7853C56.1937 21.136 56.0528 20.2241 55.4044 19.7485Z" fill="#D12F2F"/>
<path d="M42.1961 -8.02381e-08C41.3927 -8.02381e-08 40.7411 0.652489 40.7411 1.45737V24.6548H29.1012V11.9922C29.1012 7.97383 25.8373 4.70481 21.8256 4.70481C17.814 4.70481 14.55 7.97405 14.55 11.9922V24.6549H2.91003V1.45748C2.91003 0.652599 2.25848 0.000110247 1.45501 0.000110247C0.651545 0.000110247 -3.67164e-08 0.652599 -3.67164e-08 1.45748V26.1124C-3.67164e-08 26.9173 0.651545 27.5698 1.45501 27.5698H16.005C16.7702 27.5698 17.3964 26.9777 17.4544 26.2259C17.4579 26.1918 17.46 26.1546 17.46 26.1124V11.9923C17.46 9.58117 19.4184 7.61965 21.8256 7.61965C24.2329 7.61965 26.1912 9.58128 26.1912 11.9923V26.1124C26.1912 26.1544 26.1934 26.191 26.1969 26.2246C26.2542 26.9769 26.8806 27.5698 27.6462 27.5698H42.1963C42.9998 27.5698 43.6513 26.9173 43.6513 26.1124V1.45748C43.6512 0.65249 42.9997 -8.02381e-08 42.1961 -8.02381e-08Z" transform="translate(6.17444 22.4302)" fill="#D12F2F"/>
</svg>
