<svg viewBox="0 0 44 48" fill="none" xmlns="http://www.w3.org/2000/svg">
<path d="M43.2176 7.90637L43.1532 7.89521C35.8045 6.6174 28.8538 4.00758 22.4943 0.138422C22.1904 -0.0464527 21.8073 -0.0461715 21.5038 0.139454C15.1887 4.00046 8.28156 6.6023 0.97429 7.87299L0.782098 7.90637C0.329837 7.98502 -1.44251e-08 8.37446 -1.44251e-08 8.82981V21.1013C-1.44251e-08 27.3516 2.17537 33.4761 6.12548 38.3467C10.0755 43.2172 15.6411 46.6378 21.7971 47.9783C21.8641 47.9927 21.9319 48 22 48C22.0682 48 22.1363 47.9927 22.2033 47.9782C28.3598 46.6346 33.9257 43.2113 37.8752 38.339C41.8248 33.4666 44 27.3404 44 21.0888V8.82981C44 8.37427 43.67 7.98484 43.2176 7.90637ZM42.1094 21.0888C42.1094 32.9714 33.6652 43.4573 21.9998 46.1017C10.3347 43.463 1.89072 32.9825 1.89072 21.1013V9.61421C9.0266 8.30171 15.7872 5.75377 22.0013 2.0348C28.2211 5.73999 34.9794 8.28681 42.1094 9.61281V21.0888Z" fill="#D12F2F"/>
<path d="M0.946314 1.88419C1.10476 1.88419 1.26528 1.84463 1.41285 1.76148L1.42249 1.75613C1.42287 1.75585 1.43053 1.75163 1.43091 1.75144C1.88581 1.49804 2.04407 0.928881 1.78892 0.477568C1.53357 0.0261611 0.954162 -0.132558 0.49897 0.120005L0.478171 0.13163C0.024303 0.387568 -0.134328 0.959912 0.123756 1.41001C0.297986 1.71376 0.617423 1.88419 0.946314 1.88419Z" transform="translate(21.0322 4.92749)" fill="#D12F2F"/>
<path d="M13.5368 0.0914754C9.4575 2.02095 5.14958 3.51185 0.732845 4.52248C0.303839 4.62064 1.32711e-07 4.99939 1.32711e-07 5.43598V14.2219C1.32711e-07 15.2375 0.0691059 16.2629 0.205144 17.2696C0.268672 17.7405 0.674516 18.0826 1.14086 18.0826C1.18265 18.0826 1.225 18.0799 1.26764 18.0741C1.78513 18.0053 2.14834 17.5336 2.07895 17.0204C1.95397 16.096 1.89063 15.1544 1.89063 14.2219V6.17726C6.18494 5.1417 10.3734 3.66514 14.3507 1.78385C14.8221 1.56101 15.0218 1.00141 14.7971 0.53407C14.5722 0.0667254 14.0078 -0.131275 13.5368 0.0914754Z" transform="translate(4.27942 6.8667)" fill="#D12F2F"/>
<path d="M14.1477 3.14713e-07C13.6257 3.14713e-07 13.2023 0.419719 13.2023 0.937501V9.72338C13.2023 18.0583 8.23645 25.7057 0.551037 29.2061C0.0766544 29.4222 -0.13142 29.9787 0.086486 30.4493C0.24578 30.7931 0.588284 30.9957 0.946198 30.9957C1.07827 30.9957 1.21241 30.9682 1.34013 30.91C5.39252 29.0643 8.83232 26.1097 11.288 22.3655C13.7773 18.5699 15.0931 14.1984 15.0931 9.72338V0.937501C15.0931 0.419813 14.6697 3.14713e-07 14.1477 3.14713e-07Z" transform="translate(24.6274 11.3652)" fill="#D12F2F"/>
<path d="M0.739101 0.0316229L0.703083 0.0410929C0.198449 0.173937 -0.102081 0.687217 0.0318766 1.18765C0.144186 1.60766 0.526584 1.88497 0.944907 1.88497C1.02517 1.88497 1.10685 1.87484 1.18805 1.85338L1.22407 1.84391C1.72871 1.71106 2.02924 1.19778 1.89528 0.697343C1.76132 0.196624 1.24345 -0.101221 0.739101 0.0316229Z" transform="translate(21.0544 41.7494)" fill="#D12F2F"/>
<path d="M21.2354 0.325103C20.8146 -0.108367 20.1324 -0.108367 19.7115 0.325103L6.8018 13.6226L1.83952 8.5113C1.41872 8.07783 0.736501 8.07788 0.315625 8.5113C-0.105208 8.94473 -0.105208 9.64744 0.315625 10.0809L6.03986 15.9769C6.46052 16.4104 7.14325 16.4101 7.56375 15.9769L21.2354 1.89475C21.6562 1.46132 21.6562 0.758572 21.2354 0.325103Z" transform="translate(12.5714 15.3962)" fill="#D12F2F"/>
</svg>
