<svg viewBox="0 0 54 54" fill="none" xmlns="http://www.w3.org/2000/svg">
<path d="M3.48 6.96C5.40195 6.96 6.96 5.40195 6.96 3.48C6.96 1.55805 5.40195 0 3.48 0C1.55805 0 0 1.55805 0 3.48C0 5.40195 1.55805 6.96 3.48 6.96Z" transform="translate(39.76 7.27997)" stroke="#D12F2F" stroke-width="2" stroke-miterlimit="10" stroke-linecap="round"/>
<path d="M51.0403 2.9C51.0403 1.29804 49.7423 0 48.1403 0C47.9593 0 30.8841 0.00232011 30.8841 0.00232011C29.3413 0.00232011 27.8647 -0.0788799 27.0086 0.7772L0.64293 27.1417C-0.21431 27.9978 -0.21431 29.3874 0.64293 30.2435L20.7968 50.3974C21.6529 51.2534 23.0425 51.2534 23.8986 50.3974L50.2631 24.0317C51.1192 23.1768 51.038 21.7349 51.038 20.1573C51.038 20.1573 51.0403 3.08096 51.0403 2.9Z" transform="translate(1.47974 1.48004)" stroke="#D12F2F" stroke-width="2" stroke-miterlimit="10" stroke-linecap="round"/>
<path d="M2.25162 11.4933C2.25858 12.4909 2.5799 13.4363 3.21442 14.3248L8.26854 9.27072C7.76046 8.43204 7.36026 7.66992 7.06794 6.9832C6.7733 6.29416 6.60394 5.65384 6.55174 5.05528C6.50186 4.45788 6.59698 3.886 6.83942 3.33964C7.0807 2.79212 7.4809 2.2388 8.04002 1.67852C8.6119 1.10664 9.2383 0.684399 9.91806 0.410639C10.5978 0.136879 11.288 -8.14209e-07 11.9875 -8.14209e-07C12.687 -8.14209e-07 13.376 0.135719 14.0569 0.410639C14.7367 0.683239 15.3689 1.07532 15.9547 1.5834L17.2133 0.3248L18.2619 1.3746L16.9836 2.65292C17.8861 3.80944 18.3246 5.01004 18.3002 6.25588C18.2747 7.50172 17.8293 8.81252 16.9651 10.1848L15.3445 8.56428C16.3479 7.05048 16.3746 5.60164 15.4211 4.2166L10.7289 8.9088L11.5676 10.3565C11.759 10.6755 11.9457 11.0861 12.1313 11.5884C12.3146 12.0895 12.426 12.6394 12.4643 13.2379C12.5025 13.8342 12.4237 14.4548 12.2265 15.0974C12.0293 15.74 11.6372 16.3525 11.0525 16.9372C10.4296 17.5601 9.7719 18.009 9.07822 18.2816C8.3857 18.5554 7.67926 18.683 6.96238 18.6632C6.24318 18.6435 5.52862 18.4823 4.81522 18.1772C4.10414 17.871 3.41742 17.4394 2.75622 16.8815L1.19254 18.4452L0.142743 17.3965L1.70642 15.8317C0.562663 14.4327 -0.00689783 12.9804 6.2169e-05 11.4736C0.00586217 9.96672 0.626463 8.49468 1.85954 7.05744L3.48006 8.67796C2.65646 9.55724 2.24582 10.4957 2.25162 11.4933ZM5.43698 16.1669C5.83834 16.3641 6.2455 16.4755 6.66774 16.4998C7.0865 16.5254 7.50642 16.4488 7.92634 16.2713C8.3451 16.0938 8.75922 15.8015 9.16638 15.3944C9.53294 15.0255 9.77886 14.6531 9.90066 14.2773C10.0213 13.9026 10.0619 13.5186 10.0236 13.1242C9.98534 12.7298 9.87282 12.3204 9.68954 11.8935C9.50626 11.4666 9.29166 11.0328 9.05038 10.5885L4.26422 15.3746C4.6447 15.7041 5.03678 15.9697 5.43698 16.1669ZM12.2172 2.21444C11.4168 2.1634 10.6523 2.4998 9.9285 3.2248C9.5979 3.5554 9.36938 3.89296 9.24178 4.23632C9.11418 4.57852 9.0701 4.92884 9.10722 5.2838C9.1455 5.64108 9.24062 6.0088 9.39374 6.39044C9.54686 6.77208 9.7371 7.16648 9.96562 7.57248L14.4293 3.10996C13.7542 2.5636 13.0187 2.26432 12.2172 2.21444Z" transform="translate(17.9148 18.3417)" fill="#D12F2F"/>
</svg>
