<svg width="51" height="52" viewBox="0 0 51 52" fill="none" xmlns="http://www.w3.org/2000/svg">
<path d="M4.31775 0.00333799L0.220618 0.653455C0.0941878 0.673259 1.23821e-06 0.782361 1.23821e-06 0.910188V6.67715C1.23821e-06 6.75763 0.0376747 6.83469 0.101977 6.88429C0.148528 6.91957 0.205043 6.9383 0.262734 6.9383C0.284923 6.9383 0.307019 6.93614 0.329208 6.92948L4.42634 5.8596C4.54154 5.82981 4.62142 5.72629 4.62142 5.60719V0.260073C4.62142 0.184008 4.58809 0.111362 4.52931 0.0617618C4.47053 0.0121614 4.39319 -0.00872453 4.31775 0.00333799Z" transform="translate(23.658 36.9255)" fill="white"/>
<path d="M3.52629 0.00285363L0.22071 0.527305C0.0942798 0.548189 -7.73882e-07 0.656302 -7.73882e-07 0.784128V5.94509C-7.73882e-07 6.02556 0.0377667 6.10262 0.102069 6.15114C0.14862 6.18643 0.205133 6.20515 0.261646 6.20515C0.283835 6.20515 0.306024 6.20299 0.328122 6.19633L3.63379 5.33242C3.74908 5.30271 3.82887 5.1991 3.82887 5.0801V0.260669C3.82887 0.184603 3.79563 0.111957 3.73686 0.062357C3.67935 0.0127567 3.60173 -0.00812866 3.52629 0.00285363Z" transform="translate(29.5874 36.1096)" fill="white"/>
<path d="M0.102087 5.5687C0.148729 5.60399 0.204065 5.62271 0.261755 5.62271C0.283944 5.62271 0.30722 5.61938 0.328232 5.61389L3.05083 4.90212C3.16612 4.87232 3.24592 4.7688 3.24592 4.64979V0.260023C3.24592 0.183957 3.21268 0.111311 3.1539 0.061711C3.09512 0.0121106 3.01868 -0.0087719 2.94324 0.00338064L0.220637 0.435291C0.0932105 0.455095 1.7379e-05 0.564197 1.7379e-05 0.692024V5.36049C-0.00097885 5.44304 0.0377848 5.5191 0.102087 5.5687Z" transform="translate(34.3887 35.4395)" fill="white"/>
<path d="M4.35769 -1.20875e-06L0.260468 0.0208854C0.116377 0.0208854 1.23821e-06 0.137638 1.23821e-06 0.280948V6.04792C1.23821e-06 6.12164 0.0309731 6.19221 0.087577 6.24172C0.135215 6.28583 0.198432 6.30897 0.262734 6.30897C0.27161 6.30897 0.281572 6.30897 0.290447 6.30789L4.38757 5.86824C4.52062 5.85392 4.62151 5.74257 4.62151 5.60925V0.261056C4.62151 0.191651 4.5937 0.125577 4.54498 0.0770565C4.49399 0.026466 4.42752 0.00440971 4.35769 -1.20875e-06Z" transform="translate(23.658 28.9033)" fill="white"/>
<path d="M3.56623 0.000253834L0.26056 0.0168164C0.116379 0.0178967 -1.32665e-07 0.134742 -1.32665e-07 0.276881V5.43784C-1.32665e-07 5.51166 0.0310629 5.58223 0.0864895 5.63174C0.135305 5.67477 0.197344 5.69889 0.261647 5.69889C0.270613 5.69889 0.280485 5.69889 0.289451 5.69673L3.59394 5.34206C3.72699 5.32775 3.82779 5.21639 3.82779 5.08308V0.260407C3.82779 0.191002 3.80007 0.124838 3.75026 0.0764078C3.70253 0.0267174 3.63597 -0.00307686 3.56623 0.000253834Z" transform="translate(29.5876 28.8767)" fill="white"/>
<path d="M0.261555 5.20399C0.27043 5.20399 0.280393 5.20291 0.289268 5.20183L3.01187 4.90873C3.14492 4.89441 3.24581 4.78306 3.24581 4.64983V0.260064C3.24581 0.190659 3.21809 0.124585 3.16828 0.0760647C3.11947 0.0276345 3.05073 0.0011689 2.98307 -1.34061e-06L0.26056 0.0143141C0.116378 0.0143141 -7.2966e-07 0.131156 -7.2966e-07 0.274376V4.94284C-7.2966e-07 5.01666 0.0321513 5.08723 0.0875778 5.13674C0.134129 5.18085 0.197253 5.20399 0.261555 5.20399Z" transform="translate(34.3887 28.8547)" fill="white"/>
<path d="M4.39744 0.610962L0.300318 0.00279554C0.224877 -0.00827677 0.148437 0.0138682 0.0908369 0.0633786C0.0332367 0.112979 -2.4322e-07 0.184543 -2.4322e-07 0.260609V6.02758C-2.4322e-07 6.16755 0.109675 6.28206 0.249419 6.28764L4.34655 6.47605C4.3499 6.47605 4.35434 6.47605 4.35877 6.47605C4.42525 6.47605 4.49073 6.45075 4.53945 6.40448C4.59153 6.35488 4.62042 6.28647 4.62042 6.21598V0.867697C4.62024 0.73879 4.52605 0.629686 4.39744 0.610962Z" transform="translate(23.6582 20.2732)" fill="white"/>
<path d="M-1.32665e-07 0.260609V5.42049C-1.32665e-07 5.5593 0.109766 5.67389 0.249419 5.68055L3.554 5.83259C3.55844 5.83259 3.56288 5.83259 3.56623 5.83259C3.63379 5.83259 3.69809 5.80721 3.74682 5.76094C3.79898 5.71134 3.82779 5.6441 3.82779 5.57253V0.750942C3.82779 0.622035 3.73251 0.512933 3.6039 0.493128L0.299412 0.00279539C0.22397 -0.00827693 0.147443 0.0138681 0.0899332 0.0633784C0.0332387 0.112979 -1.32665e-07 0.185713 -1.32665e-07 0.260609Z" transform="translate(29.5876 21.1523)" fill="white"/>
<path d="M0.250415 5.18797L2.97302 5.31355C2.97746 5.31472 2.9819 5.31472 2.98525 5.31472C3.0529 5.31472 3.1172 5.28943 3.16593 5.24307C3.218 5.19464 3.24689 5.12514 3.24689 5.05466V0.664981C3.24689 0.536074 3.15153 0.426972 3.02292 0.407167L0.300319 0.00280248C0.224968 -0.00826983 0.148438 0.0137851 0.0908377 0.0633855C0.0332376 0.112986 5.646e-07 0.18464 5.646e-07 0.260616V4.92908C-9.00017e-05 5.06672 0.109584 5.18122 0.250415 5.18797Z" transform="translate(34.3877 21.8674)" fill="white"/>
<path d="M49.4108 20.3905L40.1722 18.0723L30.4105 0.403284C30.4061 0.395633 30.4006 0.387891 30.3951 0.380149C30.3884 0.367997 30.3807 0.357015 30.3729 0.344862C30.3562 0.321727 30.3396 0.298592 30.3208 0.276538C30.3164 0.271047 30.3119 0.263395 30.3064 0.257814C30.303 0.255653 30.302 0.253403 30.2986 0.251243C30.272 0.222617 30.2433 0.194981 30.2122 0.170766C30.2066 0.166355 30.1989 0.161944 30.1922 0.156453C30.1677 0.137729 30.1412 0.120085 30.1147 0.104692C30.1035 0.0980305 30.0913 0.0925393 30.0802 0.085968C30.0558 0.0738154 30.0315 0.0628331 30.0049 0.0529311C29.9938 0.0485201 29.9827 0.0441092 29.9717 0.0396983C29.9384 0.028626 29.9052 0.0198942 29.8708 0.0132328C29.8663 0.0132328 29.863 0.0110723 29.8585 0.0110723C29.8242 0.00558117 29.7898 0.00117024 29.7544 0C29.7511 0 29.7466 0 29.7422 0C29.7323 0 29.7222 0 29.7123 0C29.6824 0 29.6513 0.00216045 29.6213 0.00558117C29.6114 0.00666139 29.6003 0.00774162 29.5903 0.00999209C29.5582 0.0154832 29.526 0.0221446 29.4961 0.0320467C29.4883 0.0342972 29.4817 0.0364576 29.4739 0.0387081C29.4351 0.0518508 29.3964 0.0673341 29.3597 0.086058C29.3586 0.086058 29.3586 0.086058 29.3575 0.0871382L7.63574 11.3522C7.52933 11.4073 7.43623 11.4866 7.36531 11.5825L0.15207 21.3679C-0.0463604 21.6367 -0.0507981 22.0014 0.139934 22.2746C0.288463 22.4884 0.532358 22.6107 0.785129 22.6107C0.856042 22.6107 0.927046 22.6008 0.997959 22.582L2.01783 22.2967V42.7697C2.01783 43.0628 2.18302 43.3316 2.44575 43.465L18.6491 51.6991C18.6513 51.7001 18.6536 51.7012 18.6558 51.7023C18.6635 51.7056 18.6724 51.7089 18.6802 51.7122C18.7057 51.7244 18.7312 51.7343 18.7578 51.7431C18.7689 51.7464 18.7811 51.7497 18.7922 51.753C18.8176 51.7596 18.8421 51.7651 18.8675 51.7705C18.8786 51.7727 18.8886 51.775 18.8997 51.7761C18.9352 51.7805 18.9707 51.7849 19.0072 51.7849C19.0383 51.7849 19.0705 51.7828 19.1015 51.7784C19.1092 51.7773 19.1159 51.7762 19.1237 51.7762C19.1548 51.7718 19.1847 51.7652 19.2157 51.7563C19.2202 51.7552 19.2246 51.7542 19.229 51.7531C19.2456 51.7487 19.2611 51.7443 19.2766 51.7376L39.9163 44.2683L49.4874 40.8042C49.7978 40.6917 50.0051 40.3986 50.0051 40.0703V21.1474C50.0049 20.7905 49.7599 20.4775 49.4108 20.3905ZM4.0773 22.9027C4.0773 22.7793 4.16488 22.6735 4.2857 22.6481L6.00392 22.2911C6.08036 22.2757 6.16132 22.2944 6.22228 22.344C6.28323 22.3936 6.31873 22.4674 6.31873 22.5467V26.9265C6.31873 27.0642 6.21114 27.1778 6.07375 27.1866L4.35661 27.2978C4.35109 27.2978 4.34556 27.2978 4.33886 27.2978C4.27238 27.2978 4.20808 27.2726 4.15927 27.2274C4.10719 27.1778 4.07613 27.1094 4.07613 27.0379V22.9027H4.0773ZM6.31882 40.0637C6.31882 40.1485 6.27671 40.2279 6.20688 40.2775C6.16259 40.3084 6.10934 40.3237 6.05726 40.3237C6.0262 40.3237 5.99631 40.3182 5.96643 40.3072L4.2482 39.6791C4.14514 39.6417 4.0764 39.5436 4.0764 39.4345V35.3015C4.0764 35.2233 4.11299 35.1484 4.17502 35.0988C4.23715 35.0492 4.31803 35.0305 4.39564 35.0482L6.11269 35.4305C6.23242 35.457 6.31782 35.5627 6.31782 35.6839V40.0636H6.31882V40.0637ZM6.33105 33.4956C6.33105 33.5717 6.29781 33.6434 6.24012 33.6929C6.19248 33.7337 6.13153 33.7556 6.0694 33.7556C6.05609 33.7556 6.04386 33.7545 6.03055 33.7535L4.30127 33.4934C4.17267 33.4736 4.07848 33.3645 4.07848 33.2357V29.0784C4.07848 29.009 4.10619 28.9429 4.15601 28.8943C4.20482 28.8459 4.27347 28.815 4.3423 28.8184L6.07157 28.8293C6.21566 28.8305 6.33204 28.9462 6.33204 29.0894V33.4956H6.33105V33.4956ZM10.4525 46.5457C10.4525 46.6372 10.4049 46.7208 10.3273 46.7683C10.2852 46.7936 10.2386 46.8069 10.191 46.8069C10.15 46.8069 10.1089 46.7981 10.0713 46.7783L7.89621 45.6719C7.80863 45.6268 7.75321 45.5376 7.75321 45.4394V36.1191C7.75321 36.0408 7.7898 35.9659 7.85075 35.9163C7.91288 35.8667 7.99375 35.848 8.07137 35.8657L10.2463 36.3482C10.366 36.3747 10.4515 36.4805 10.4515 36.6017V46.5457H10.4525ZM10.4525 34.116C10.4525 34.192 10.4193 34.2637 10.3605 34.3132C10.3129 34.3539 10.2519 34.3759 10.1898 34.3759C10.1765 34.3759 10.1643 34.3748 10.151 34.3726L7.9539 34.0421C7.8253 34.0233 7.73111 33.9142 7.73111 33.7853V29.1059C7.73111 29.0375 7.75882 28.9703 7.80764 28.9219C7.85754 28.8734 7.91958 28.8458 7.99384 28.847L10.191 28.8612C10.3351 28.8624 10.4515 28.9792 10.4515 29.1213V34.1159H10.4525V34.116ZM10.4525 26.6587C10.4525 26.7955 10.3449 26.91 10.2076 26.9188L8.00933 27.0598C8.00381 27.0598 7.99819 27.0609 7.99158 27.0609C7.9251 27.0609 7.8608 27.0356 7.81199 26.9904C7.761 26.9408 7.73102 26.8725 7.73102 26.8009V22.1435C7.73102 22.0201 7.81751 21.9144 7.93941 21.8891L10.1366 21.4318C10.2141 21.4164 10.294 21.4351 10.3549 21.4846C10.4159 21.5331 10.4514 21.608 10.4514 21.6863V26.6588H10.4525V26.6587ZM15.8776 43.5564C15.8776 43.6424 15.8355 43.7217 15.7657 43.7702C15.7203 43.8011 15.6693 43.8165 15.6161 43.8165C15.585 43.8165 15.5551 43.811 15.5263 43.8011L12.6164 42.7378C12.5133 42.7002 12.4457 42.6022 12.4457 42.4931V37.1856C12.4457 37.1063 12.4812 37.0313 12.5433 36.9817C12.6053 36.9321 12.6863 36.9134 12.7639 36.9311L15.6738 37.579C15.7935 37.6054 15.8777 37.7112 15.8777 37.8335V43.5564H15.8776ZM15.8776 34.9325C15.8776 35.0085 15.8444 35.0812 15.7868 35.1297C15.7392 35.1704 15.6781 35.1924 15.6161 35.1924C15.6028 35.1924 15.5906 35.1924 15.5762 35.1902L12.6663 34.7529C12.5377 34.733 12.4435 34.6239 12.4435 34.4961V29.1633C12.4435 29.0939 12.4713 29.0277 12.5201 28.9793C12.57 28.9297 12.632 28.9032 12.7063 28.9032L15.6162 28.9241C15.7603 28.9252 15.8766 29.041 15.8766 29.1842V34.9324H15.8776V34.9325ZM15.8776 26.3085C15.8776 26.4451 15.7701 26.5596 15.6327 26.5685L12.7228 26.7558C12.7172 26.7558 12.7116 26.7558 12.705 26.7558C12.6385 26.7558 12.5742 26.7305 12.5265 26.6853C12.4733 26.6357 12.4434 26.5673 12.4434 26.4958V21.163C12.4434 21.0396 12.5299 20.9338 12.6518 20.9085L15.5617 20.3036C15.6382 20.287 15.7191 20.3069 15.78 20.3564C15.841 20.4049 15.8765 20.4798 15.8765 20.558V26.3085H15.8776V26.3085ZM38.862 42.9879L19.7941 49.8887V16.9738L29.6567 2.28297L38.862 18.9471V42.9879ZM44.9046 38.1553C44.9046 38.2732 44.8248 38.3767 44.7095 38.4064L41.8717 39.1469C41.8495 39.1525 41.8273 39.1558 41.8052 39.1558C41.7486 39.1558 41.691 39.137 41.6456 39.1017C41.5813 39.0533 41.5436 38.9761 41.5436 38.8957V33.0131C41.5436 32.8797 41.6444 32.7684 41.7763 32.7541L44.6141 32.4488C44.6884 32.4412 44.7616 32.4654 44.817 32.5139C44.8724 32.5635 44.9046 32.634 44.9046 32.7078V38.1553ZM44.9046 29.0773C44.9046 29.2206 44.7882 29.3374 44.6441 29.3374L41.8074 29.3517H41.8062C41.7375 29.3517 41.671 29.3242 41.6211 29.2757C41.5724 29.2261 41.5446 29.1611 41.5446 29.0917V23.209C41.5446 23.134 41.5778 23.0614 41.6355 23.0118C41.6932 22.9622 41.7696 22.9401 41.845 22.9512L44.6828 23.3721C44.8114 23.3908 44.9057 23.501 44.9057 23.6299V29.0774H44.9046V29.0773ZM48.8022 37.1383C48.8022 37.2563 48.7212 37.3598 48.6071 37.3907L46.3789 37.9725C46.3579 37.978 46.3346 37.9813 46.3124 37.9813C46.2548 37.9813 46.1982 37.9626 46.1528 37.9273C46.0885 37.8777 46.0508 37.8016 46.0508 37.7212V32.5735C46.0508 32.4402 46.1517 32.3288 46.2847 32.3145L48.5128 32.0722C48.5861 32.0634 48.6604 32.0876 48.7169 32.1372C48.7722 32.1868 48.8045 32.2573 48.8045 32.3311V37.1383H48.8022ZM48.8022 29.0574C48.8022 29.2008 48.6858 29.3175 48.5416 29.3175L46.3135 29.3286H46.3123C46.2436 29.3286 46.1771 29.3021 46.1272 29.2525C46.0784 29.2029 46.0497 29.1379 46.0497 29.0685V23.8789C46.0497 23.8029 46.0829 23.7313 46.1405 23.6817C46.1982 23.6321 46.2758 23.6101 46.35 23.6211L48.5782 23.9517C48.7068 23.9704 48.8022 24.0806 48.8022 24.2095V29.0574Z" transform="translate(0.140137)" fill="white"/>
</svg>
