<svg width="61" height="53" viewBox="0 0 61 53" fill="none" xmlns="http://www.w3.org/2000/svg">
<rect width="11.1122" height="7.39785" transform="translate(49.5996 22.8926)" fill="white"/>
<path d="M0 0H15.7423V17.5699L0 15.7204V0Z" transform="translate(5.15039 19.1936)" fill="white"/>
<path d="M5.14936 0.0065951L0.26311 1.29108C0.112329 1.3302 1.47669e-06 1.54576 1.47669e-06 1.79832V13.1925C1.47669e-06 13.3515 0.0449309 13.5038 0.121618 13.6018C0.177135 13.6715 0.244535 13.7085 0.313337 13.7085C0.3398 13.7085 0.366152 13.7042 0.392614 13.691L5.27886 11.5772C5.41625 11.5183 5.51151 11.3138 5.51151 11.0785V0.513845C5.51151 0.363556 5.47176 0.220026 5.40167 0.122027C5.33157 0.0240281 5.23933 -0.0172377 5.14936 0.0065951Z" transform="translate(27.375 26.7539)" fill="white"/>
<path d="M4.20546 0.00563812L0.26322 1.04183C0.112438 1.0831 -9.22933e-07 1.2967 -9.22933e-07 1.54926V11.7461C-9.22933e-07 11.9051 0.0450406 12.0574 0.121727 12.1532C0.177244 12.2229 0.244642 12.2599 0.31204 12.2599C0.338502 12.2599 0.364965 12.2557 0.39132 12.2425L4.33367 10.5356C4.47117 10.4769 4.56632 10.2722 4.56632 10.0371V0.515021C4.56632 0.364732 4.52668 0.221202 4.45658 0.123203C4.388 0.0252042 4.29543 -0.0160604 4.20546 0.00563812Z" transform="translate(34.4465 25.1416)" fill="white"/>
<path d="M0.121749 11.0025C0.177374 11.0722 0.243368 11.1092 0.31217 11.1092C0.338632 11.1092 0.366392 11.1026 0.39145 11.0918L3.63843 9.68544C3.77593 9.62657 3.87109 9.42204 3.87109 9.18691V0.513745C3.87109 0.363456 3.83144 0.219925 3.76135 0.121927C3.69125 0.0239278 3.60009 -0.0173312 3.51012 0.00667936L0.263133 0.860035C0.111163 0.899163 2.07263e-05 1.11472 2.07263e-05 1.36728V10.5911C-0.00116738 10.7542 0.0450623 10.9045 0.121749 11.0025Z" transform="translate(40.1721 23.8171)" fill="white"/>
<path d="M59.476 20.3905L48.3555 18.0723L36.6053 0.403284C36.5999 0.395633 36.5933 0.387891 36.5866 0.380149C36.5787 0.367997 36.5693 0.357015 36.5599 0.344862C36.5399 0.321727 36.5199 0.298592 36.4972 0.276538C36.4919 0.271047 36.4866 0.263395 36.4799 0.257814C36.4759 0.255653 36.4746 0.253403 36.4705 0.251243C36.4385 0.222617 36.4039 0.194981 36.3665 0.170766C36.3598 0.166355 36.3505 0.161944 36.3424 0.156453C36.313 0.137729 36.2811 0.120085 36.2491 0.104692C36.2357 0.0980305 36.221 0.0925393 36.2077 0.085968C36.1783 0.0738154 36.1491 0.0628331 36.117 0.0529311C36.1037 0.0485201 36.0903 0.0441092 36.077 0.0396983C36.037 0.028626 35.997 0.0198942 35.9556 0.0132328C35.9502 0.0132328 35.9462 0.0110723 35.9408 0.0110723C35.8995 0.00558117 35.8581 0.00117024 35.8155 0C35.8115 0 35.8061 0 35.8007 0C35.7889 0 35.7768 0 35.7648 0C35.7288 0 35.6914 0.00216045 35.6553 0.00558117C35.6433 0.00666139 35.63 0.00774162 35.6179 0.00999209C35.5793 0.0154832 35.5405 0.0221446 35.5046 0.0320467C35.4952 0.0342972 35.4872 0.0364576 35.4778 0.0387081C35.4311 0.0518508 35.3845 0.0673341 35.3404 0.086058C35.3391 0.086058 35.3391 0.086058 35.3378 0.0871382L9.19117 11.3522C9.06308 11.4073 8.95101 11.4866 8.86565 11.5825L0.183048 21.3679C-0.0558042 21.6367 -0.0611459 22.0014 0.16844 22.2746C0.347224 22.4884 0.640802 22.6107 0.945062 22.6107C1.03042 22.6107 1.11589 22.6008 1.20125 22.582L2.42887 22.2967V42.7697C2.42887 43.0628 2.62771 43.3316 2.94396 43.465L22.448 51.6991C22.4507 51.7001 22.4534 51.7012 22.456 51.7023C22.4654 51.7056 22.4761 51.7089 22.4854 51.7122C22.5161 51.7244 22.5468 51.7343 22.5789 51.7431C22.5922 51.7464 22.6069 51.7497 22.6202 51.753C22.6508 51.7596 22.6803 51.7651 22.7109 51.7705C22.7243 51.7727 22.7363 51.775 22.7496 51.7761C22.7923 51.7805 22.8351 51.7849 22.8791 51.7849C22.9165 51.7849 22.9552 51.7828 22.9926 51.7784C23.0018 51.7773 23.0099 51.7762 23.0193 51.7762C23.0567 51.7718 23.0927 51.7652 23.13 51.7563C23.1354 51.7552 23.1407 51.7542 23.146 51.7531C23.166 51.7487 23.1847 51.7443 23.2033 51.7376L48.0474 44.2683L59.5682 40.8042C59.9418 40.6917 60.1913 40.3986 60.1913 40.0703V21.1474C60.1911 20.7905 59.8962 20.4775 59.476 20.3905ZM4.90787 22.9027C4.90787 22.7793 5.01328 22.6735 5.15871 22.6481L7.22694 22.2911C7.31895 22.2757 7.41641 22.2944 7.48978 22.344C7.56314 22.3936 7.60588 22.4674 7.60588 22.5467V26.9265C7.60588 27.0642 7.47637 27.1778 7.31099 27.1866L5.24407 27.2978C5.23742 27.2978 5.23077 27.2978 5.2227 27.2978C5.14268 27.2978 5.06528 27.2726 5.00652 27.2274C4.94384 27.1778 4.90645 27.1094 4.90645 27.0379V22.9027H4.90787ZM7.60599 40.0637C7.60599 40.1485 7.55529 40.2279 7.47124 40.2775C7.41794 40.3084 7.35383 40.3237 7.29115 40.3237C7.25376 40.3237 7.21778 40.3182 7.18181 40.3072L5.11358 39.6791C4.98952 39.6417 4.90678 39.5436 4.90678 39.4345V35.3015C4.90678 35.2233 4.95082 35.1484 5.02549 35.0988C5.10028 35.0492 5.19763 35.0305 5.29105 35.0482L7.35787 35.4305C7.50199 35.457 7.60479 35.5627 7.60479 35.6839V40.0636H7.60599V40.0637ZM7.6207 33.4956C7.6207 33.5717 7.5807 33.6434 7.51125 33.6929C7.45391 33.7337 7.38054 33.7556 7.30576 33.7556C7.28973 33.7556 7.27502 33.7545 7.25899 33.7535L5.17746 33.4934C5.02266 33.4736 4.90928 33.3645 4.90928 33.2357V29.0784C4.90928 29.009 4.94264 28.9429 5.0026 28.8943C5.06136 28.8459 5.14399 28.815 5.22684 28.8184L7.30838 28.8293C7.48182 28.8305 7.6219 28.9462 7.6219 29.0894V33.4956H7.6207V33.4956ZM12.5818 46.5457C12.5818 46.6372 12.5244 46.7208 12.431 46.7683C12.3803 46.7936 12.3243 46.8069 12.2669 46.8069C12.2175 46.8069 12.1682 46.7981 12.1228 46.7783L9.5047 45.6719C9.39928 45.6268 9.33257 45.5376 9.33257 45.4394V36.1191C9.33257 36.0408 9.37661 35.9659 9.44998 35.9163C9.52476 35.8667 9.62211 35.848 9.71554 35.8657L12.3335 36.3482C12.4776 36.3747 12.5804 36.4805 12.5804 36.6017V46.5457H12.5818ZM12.5818 34.116C12.5818 34.192 12.5417 34.2637 12.471 34.3132C12.4137 34.3539 12.3403 34.3759 12.2655 34.3759C12.2495 34.3759 12.2348 34.3748 12.2187 34.3726L9.57414 34.0421C9.41934 34.0233 9.30597 33.9142 9.30597 33.7853V29.1059C9.30597 29.0375 9.33932 28.9703 9.39808 28.9219C9.45815 28.8734 9.53283 28.8458 9.62222 28.847L12.2669 28.8612C12.4404 28.8624 12.5804 28.9792 12.5804 29.1213V34.1159H12.5818V34.116ZM12.5818 26.6587C12.5818 26.7955 12.4522 26.91 12.2869 26.9188L9.64086 27.0598C9.63421 27.0598 9.62745 27.0609 9.61949 27.0609C9.53948 27.0609 9.46208 27.0356 9.40332 26.9904C9.34194 26.9408 9.30586 26.8725 9.30586 26.8009V22.1435C9.30586 22.0201 9.40997 21.9144 9.5567 21.8891L12.2014 21.4318C12.2947 21.4164 12.3909 21.4351 12.4642 21.4846C12.5376 21.5331 12.5803 21.608 12.5803 21.6863V26.6588H12.5818V26.6587ZM19.112 43.5564C19.112 43.6424 19.0613 43.7217 18.9772 43.7702C18.9226 43.8011 18.8612 43.8165 18.7971 43.8165C18.7597 43.8165 18.7238 43.811 18.6891 43.8011L15.1865 42.7378C15.0623 42.7002 14.981 42.6022 14.981 42.4931V37.1856C14.981 37.1063 15.0237 37.0313 15.0984 36.9817C15.173 36.9321 15.2705 36.9134 15.3639 36.9311L18.8666 37.579C19.0107 37.6054 19.1121 37.7112 19.1121 37.8335V43.5564H19.112ZM19.112 34.9325C19.112 35.0085 19.072 35.0812 19.0026 35.1297C18.9453 35.1704 18.8718 35.1924 18.7971 35.1924C18.7811 35.1924 18.7665 35.1924 18.7492 35.1902L15.2465 34.7529C15.0917 34.733 14.9783 34.6239 14.9783 34.4961V29.1633C14.9783 29.0939 15.0117 29.0277 15.0705 28.9793C15.1305 28.9297 15.2052 28.9032 15.2946 28.9032L18.7972 28.9241C18.9707 28.9252 19.1108 29.041 19.1108 29.1842V34.9324H19.112V34.9325ZM19.112 26.3085C19.112 26.4451 18.9826 26.5596 18.8171 26.5685L15.3144 26.7558C15.3078 26.7558 15.301 26.7558 15.2931 26.7558C15.2131 26.7558 15.1357 26.7305 15.0782 26.6853C15.0142 26.6357 14.9781 26.5673 14.9781 26.4958V21.163C14.9781 21.0396 15.0822 20.9338 15.229 20.9085L18.7316 20.3036C18.8237 20.287 18.9211 20.3069 18.9945 20.3564C19.0678 20.4049 19.1106 20.4798 19.1106 20.558V26.3085H19.112V26.3085ZM46.7783 42.9879L23.8262 49.8887V16.9738L35.6978 2.28297L46.7783 18.9471V42.9879ZM54.0518 38.1553C54.0518 38.2732 53.9558 38.3767 53.817 38.4064L50.4011 39.1469C50.3744 39.1525 50.3477 39.1558 50.3211 39.1558C50.253 39.1558 50.1836 39.137 50.1289 39.1017C50.0515 39.0533 50.0062 38.9761 50.0062 38.8957V33.0131C50.0062 32.8797 50.1275 32.7684 50.2863 32.7541L53.7022 32.4488C53.7916 32.4412 53.8797 32.4654 53.9464 32.5139C54.0131 32.5635 54.0518 32.634 54.0518 32.7078V38.1553ZM54.0518 29.0773C54.0518 29.2206 53.9117 29.3374 53.7383 29.3374L50.3237 29.3517H50.3223C50.2396 29.3517 50.1595 29.3242 50.0995 29.2757C50.0408 29.2261 50.0074 29.1611 50.0074 29.0917V23.209C50.0074 23.134 50.0474 23.0614 50.1168 23.0118C50.1863 22.9622 50.2783 22.9401 50.369 22.9512L53.7848 23.3721C53.9396 23.3908 54.0531 23.501 54.0531 23.6299V29.0774H54.0518V29.0773ZM58.7434 37.1383C58.7434 37.2563 58.6459 37.3598 58.5086 37.3907L55.8265 37.9725C55.8012 37.978 55.7732 37.9813 55.7465 37.9813C55.677 37.9813 55.609 37.9626 55.5543 37.9273C55.4769 37.8777 55.4315 37.8016 55.4315 37.7212V32.5735C55.4315 32.4402 55.553 32.3288 55.7131 32.3145L58.3951 32.0722C58.4833 32.0634 58.5727 32.0876 58.6407 32.1372C58.7073 32.1868 58.7461 32.2573 58.7461 32.3311V37.1383H58.7434ZM58.7434 29.0574C58.7434 29.2008 58.6033 29.3175 58.4297 29.3175L55.7478 29.3286H55.7463C55.6636 29.3286 55.5836 29.3021 55.5235 29.2525C55.4648 29.2029 55.4302 29.1379 55.4302 29.0685V23.8789C55.4302 23.8029 55.4701 23.7313 55.5396 23.6817C55.609 23.6321 55.7023 23.6101 55.7917 23.6211L58.4738 23.9517C58.6286 23.9704 58.7434 24.0806 58.7434 24.2095V29.0574Z" transform="translate(0.520508 0.698975)" fill="white"/>
<rect width="10.1862" height="8.32258" transform="translate(49.5996 32.1399)" fill="white"/>
</svg>
