<svg viewBox="0 0 30 29" fill="none" xmlns="http://www.w3.org/2000/svg">
<path d="M5.52085 4.84866C5.51823 5.49166 5.52085 6.13463 5.52351 6.77759C6.57522 6.81273 7.62951 6.79649 8.68122 6.81273C8.21733 9.20364 5.04381 9.97897 3.3648 8.41749C1.63832 7.04777 1.72003 4.04361 3.51503 2.77116C4.76968 1.74455 6.55413 1.99849 7.80874 2.88732C8.30166 2.41996 8.76289 1.92015 9.20835 1.40145C8.16458 0.547748 6.88359 -0.0601175 5.52085 0.00473827C2.67683 -0.0925274 0.0621026 2.46047 0.0146714 5.37551C-0.167218 7.75828 1.36156 10.0952 3.52031 10.9381C5.67112 11.7864 8.42818 11.2082 9.80145 9.22795C10.7082 7.97712 10.9032 6.36698 10.7978 4.85408C9.03702 4.84056 7.27896 4.84325 5.52085 4.84866Z" transform="translate(6.06006 8.48779)" fill="white"/>
<path d="M3.16824 1.61555C3.16295 1.07792 3.16033 0.537597 3.15771 8.53404e-08C2.63317 8.53404e-08 2.11128 8.53404e-08 1.5894 8.53404e-08C1.58412 0.537633 1.57887 1.07523 1.57621 1.61555C1.04905 1.61824 0.524506 1.62096 -5.91377e-07 1.62638C-5.91377e-07 2.16397 -5.91377e-07 2.69888 -5.91377e-07 3.23383C0.524506 3.23924 1.05167 3.24465 1.57621 3.25003C1.58149 3.78766 1.58149 4.32526 1.58678 4.86289C2.11132 4.86289 2.6332 4.86289 3.15771 4.86289C3.16033 4.32526 3.16295 3.78766 3.16824 3.24734C3.6954 3.24193 4.21994 3.23924 4.74445 3.23383C4.74445 2.69888 4.74445 2.16129 4.74445 1.62638C4.21994 1.62096 3.69278 1.62096 3.16824 1.61555Z" transform="translate(18.6975 11.7129)" fill="white"/>
<path d="M28.0064 14.5C28.0064 22.2401 21.8409 28.5 14.2532 28.5C6.66558 28.5 0.5 22.2401 0.5 14.5C0.5 6.75989 6.66558 0.5 14.2532 0.5C21.8409 0.5 28.0064 6.75989 28.0064 14.5Z" transform="translate(0.497803)" stroke="#F2F2F2"/>
</svg>
