<svg viewBox="0 0 231 63" fill="none" xmlns="http://www.w3.org/2000/svg">
<path d="M4.64143 12.6356L3.03478 16.3729H-5.44788e-06L7.14064 -1.35777e-06H10.1754L17.4946 16.3729H14.4598L12.8532 12.6356C12.8532 12.6356 4.64143 12.6356 4.64143 12.6356ZM11.7821 10.1441L8.74729 3.38136L5.71252 10.1441C5.71252 10.1441 11.7821 10.1441 11.7821 10.1441Z" transform="translate(73.0132 0.711914)" fill="#F7F7F7"/>
<path d="M0 16.3729V-1.35777e-06H2.85626V13.7034H10.3539V16.3729H0Z" transform="translate(95.8633 0.711914)" fill="#F7F7F7"/>
<path d="M2.85627 2.49153V7.11864H10.1754V9.61017H2.85627V16.3729H-5.44788e-06V-1.35777e-06H11.068V2.49153H2.85627Z" transform="translate(113.179 0.711914)" fill="#F7F7F7"/>
<path d="M4.64143 12.6356L3.03477 16.3729H0L7.31918 2.71555e-06H10.3539L17.6731 16.3729H14.6383L13.0317 12.6356H4.64143V12.6356ZM11.6036 10.1441L8.56879 3.38135L5.53401 10.1441H11.6036Z" transform="translate(127.996 0.889648)" fill="#F7F7F7"/>
<path d="M-5.44788e-06 2.71555e-06H9.10433C12.6747 2.71555e-06 15.3524 0.711864 17.1376 1.95763C18.9227 3.20339 19.6368 5.33898 19.6368 8.18644C19.6368 11.0339 18.7442 13.1695 17.1376 14.5932C15.3524 16.0169 13.0317 16.7288 9.63987 16.7288H6.78362V25.6271H-5.44788e-06C-5.44788e-06 25.6271 -5.44788e-06 2.71555e-06 -5.44788e-06 2.71555e-06ZM6.96213 4.62712V12.1017H8.74729C10.1754 12.1017 11.068 11.7458 11.7821 11.2119C12.4961 10.678 12.8532 9.78814 12.8532 8.54237C12.8532 7.29661 12.4961 6.22881 11.7821 5.69491C11.068 4.98305 9.99691 4.62712 8.74729 4.62712H6.96213Z" transform="translate(73.0132 23.1353)" fill="#F7F7F7"/>
<path d="M0.178514 2.71555e-06H10.3539C13.7458 2.71555e-06 16.245 0.533897 17.8516 1.60169C19.4583 2.66949 20.3508 4.44915 20.3508 6.58474C20.3508 8.18644 19.9938 9.61017 19.1012 10.678C18.2087 11.7458 16.9591 12.4576 15.3524 12.8136C16.7805 13.3475 17.8516 14.7712 18.5657 17.0847L21.6005 25.6271H14.4598L12.1391 18.6864C11.7821 17.6186 11.2465 16.7288 10.711 16.3729C9.99691 16.0169 9.10433 15.661 7.85472 15.661H6.78362V25.6271H0L0.178514 2.71555e-06ZM6.96214 4.62712V11.2119H9.28284C10.711 11.2119 11.9606 10.8559 12.6747 10.322C13.3887 9.78814 13.7457 8.8983 13.7457 7.83051C13.7457 6.76271 13.3887 5.87288 12.4961 5.33899C11.6036 4.80509 10.3539 4.44915 8.56878 4.44915H6.96214V4.62712Z" transform="translate(95.8633 23.1353)" fill="#F7F7F7"/>
<path d="M12.8532 -2.71555e-06C16.7805 -2.71555e-06 19.9938 1.24576 22.136 3.55932C24.4567 5.87288 25.5278 9.25423 25.5278 13.3475C25.5278 17.6186 24.4567 20.822 22.136 23.1356C19.8153 25.4491 16.7805 26.6949 12.8532 26.6949C8.74729 26.6949 5.71253 25.4491 3.39182 23.1356C1.07111 20.822 -5.44788e-06 17.4407 -5.44788e-06 13.3475C-5.44788e-06 9.07627 1.07111 5.87288 3.39182 3.55932C5.71253 1.06779 8.9258 -2.71555e-06 12.8532 -2.71555e-06ZM12.8532 4.98305C11.068 4.98305 9.63988 5.69492 8.56878 7.29661C7.49768 8.89831 6.96214 10.8559 6.96214 13.3475C6.96214 15.839 7.49768 17.9746 8.56878 19.3983C9.63988 21 11.068 21.7119 12.8532 21.7119C14.6383 21.7119 16.0665 21 17.1376 19.3983C18.2087 17.7966 18.7442 15.839 18.7442 13.1695C18.7442 10.678 18.2087 8.54237 17.1376 7.11864C16.0665 5.69491 14.6383 4.98305 12.8532 4.98305Z" transform="translate(119.427 22.6016)" fill="#F7F7F7"/>
<path d="M6.42659 2.71555e-06H13.2102V16.017C13.2102 19.3983 12.4961 22.0678 11.068 23.6695C9.63987 25.2712 7.49768 26.161 4.4629 26.161C3.74884 26.161 2.85625 26.161 2.14218 25.9831C1.42812 25.8051 0.714059 25.6271 -5.44788e-06 25.4491V19.7542C0.357027 19.9322 0.71407 19.9322 1.0711 20.1102C1.42814 20.1102 1.78515 20.2881 2.14218 20.2881C3.74883 20.2881 4.81993 19.7542 5.35548 18.8644C6.06955 17.9746 6.42659 16.3729 6.42659 14.2373C6.42659 14.4153 6.42659 2.71555e-06 6.42659 2.71555e-06Z" transform="translate(147.097 23.1353)" fill="#F7F7F7"/>
<path d="M0 2.71555e-06H17.8516V4.80508H6.78362V9.9661H17.1376V14.9492H6.78362V20.6441H18.2087V25.6271H0V2.71555e-06Z" transform="translate(165.485 23.1353)" fill="#F7F7F7"/>
<path d="M22.3145 1.0678L21.779 6.40678C20.8864 5.87288 19.8153 5.33898 18.7442 5.16102C17.6731 4.80509 16.602 4.80508 15.5309 4.80508C13.0317 4.80508 10.8895 5.51695 9.46135 7.11864C7.8547 8.54237 7.14066 10.678 7.14066 13.1695C7.14066 15.661 7.8547 17.6186 9.46135 19.2203C11.068 20.6441 13.0317 21.5339 15.7094 21.5339C16.7805 21.5339 17.6731 21.3559 18.7442 21.178C19.8153 21 20.8864 20.6441 21.9575 20.1102L22.3145 25.8051C21.0649 26.161 19.8153 26.339 18.5657 26.5169C17.3161 26.6949 16.0664 26.6949 14.8168 26.6949C10.1754 26.6949 6.60511 25.4492 3.92736 23.1356C1.24962 20.822 1.08958e-05 17.4407 1.08958e-05 13.1695C1.08958e-05 9.07627 1.24962 5.87288 3.92736 3.55932C6.42659 1.24576 9.9969 -1.35777e-06 14.4598 -1.35777e-06C15.8879 -1.35777e-06 17.3161 0.177966 18.5657 0.355932C19.8153 0.177966 21.0649 0.533901 22.3145 1.0678Z" transform="translate(187.085 22.9575)" fill="#F7F7F7"/>
<path d="M-5.44788e-06 2.71555e-06H19.6368V5.16102H13.2102V25.6271H6.42659V5.16102H-5.44788e-06V2.71555e-06Z" transform="translate(211.363 23.1353)" fill="#F7F7F7"/>
<path d="M-5.44788e-06 0.177963C0.535543 -2.7182e-06 1.42813 0 2.1422 0C3.57033 0 4.4629 0.355932 5.17697 0.88983C5.89103 1.42373 6.42659 2.31356 6.42659 3.55932C6.42659 4.80508 5.89103 5.87288 5.17697 6.58474C4.4629 7.2966 3.21329 7.65255 1.78516 7.65255C1.07109 7.65255 0.357027 7.65254 -5.44788e-06 7.47457V0.177963ZM1.42813 6.58474C1.60665 6.58474 1.96368 6.58474 2.1422 6.58474C3.92736 6.58474 4.99845 5.69491 4.99845 3.73729C4.99845 2.13559 4.10587 1.06779 2.32071 1.06779C1.96368 1.06779 1.60665 1.06779 1.42813 1.06779V6.58474Z" transform="translate(73.0132 54.4575)" fill="#F7F7F7"/>
<path d="M4.2844 4.09322H1.42812V6.22881H4.64142V7.2966H2.72394e-06V-2.71555e-06H4.46291V1.06779H1.42812V3.02543H4.2844V4.09322Z" transform="translate(81.4034 54.6353)" fill="#F7F7F7"/>
<path d="M-2.72394e-06 6.05085C0.35703 6.22882 1.07109 6.58474 1.78516 6.58474C2.67774 6.58474 3.21329 6.22881 3.21329 5.51695C3.21329 4.98305 2.85625 4.62712 1.96367 4.27119C0.714059 3.91526 -2.72394e-06 3.20338 -2.72394e-06 2.13559C-2.72394e-06 0.889825 1.07109 0 2.67774 0C3.57032 0 4.10587 0.177961 4.4629 0.355927L4.10588 1.42373C3.92736 1.24577 3.39181 1.06779 2.67774 1.06779C1.78516 1.06779 1.42813 1.60169 1.42813 1.95762C1.42813 2.49152 1.78516 2.84746 2.85625 3.2034C4.10587 3.73729 4.81994 4.27119 4.81994 5.33898C4.81994 6.58475 3.92735 7.65255 1.96367 7.65255C1.24961 7.65255 0.35703 7.47458 -2.72394e-06 7.11864V6.05085Z" transform="translate(88.0084 54.4575)" fill="#F7F7F7"/>
<path d="M1.24961 7.2966H5.44788e-06V-2.71555e-06H1.24961V7.2966Z" transform="translate(94.6136 54.6353)" fill="#F7F7F7"/>
<path d="M6.42658 7.29661C5.89103 7.47457 4.99846 7.65255 3.92736 7.65255C2.67775 7.65255 1.78516 7.2966 1.07109 6.58474C0.357027 5.87288 -2.72394e-06 4.98305 -2.72394e-06 3.91525C-2.72394e-06 1.60169 1.60665 0 4.10588 0C4.99846 0 5.71252 0.177961 6.06955 0.355927L5.71253 1.42373C5.35549 1.24577 4.81994 1.06779 3.92736 1.06779C2.32072 1.06779 1.24962 1.95762 1.24962 3.73729C1.24962 5.51695 2.32072 6.40678 3.92736 6.40678C4.46291 6.40678 4.81994 6.40678 4.99846 6.22881V4.44915H3.74884V3.38136H6.42658V7.29661Z" transform="translate(97.8269 54.4575)" fill="#F7F7F7"/>
<path d="M0 7.47457V0H1.60665L3.57032 3.2034C4.10587 4.09323 4.4629 4.98305 4.81993 5.69491C4.81993 4.62711 4.64143 3.73729 4.64143 2.66949V0H5.89104V7.47457H4.46291L2.49923 4.27119C1.96368 3.38136 1.60664 2.49153 1.07109 1.77966C1.07109 2.66949 1.07109 3.73729 1.07109 4.98306V7.65255L0 7.47457Z" transform="translate(106.574 54.4575)" fill="#F7F7F7"/>
<path d="M2.1422 5.33898L1.42812 7.47458H1.08958e-05L2.3207 -2.71555e-06H4.10586L6.60511 7.47458H5.17697L4.46292 5.33898H2.1422ZM4.28439 4.27119L3.74884 2.49153C3.57032 1.95763 3.57032 1.60169 3.39181 1.06779C3.21329 1.42372 3.2133 1.95763 3.03478 2.49153L2.49923 4.27119H4.28439Z" transform="translate(117.464 54.6353)" fill="#F7F7F7"/>
<path d="M5.44788e-06 7.47457V0H1.60664L3.57033 3.2034C4.10588 4.09323 4.46291 4.98305 4.81994 5.69491C4.64142 4.62711 4.64141 3.73729 4.64141 2.66949V0H5.89105V7.47457H4.46291L2.49922 4.27119C1.96367 3.38136 1.60664 2.49153 1.07109 1.77966C1.07109 2.66949 1.07109 3.73729 1.07109 4.98306V7.65255C1.2496 7.47458 5.44788e-06 7.47457 5.44788e-06 7.47457Z" transform="translate(125.854 54.4575)" fill="#F7F7F7"/>
<path d="M0 0.177963C0.535549 -2.7182e-06 1.42812 0 2.14219 0C3.57032 0 4.46289 0.355932 5.17696 0.88983C5.89102 1.42373 6.4266 2.31356 6.4266 3.55932C6.4266 4.80508 5.89102 5.87288 5.17696 6.58474C4.46289 7.2966 3.21329 7.65255 1.78516 7.65255C1.0711 7.65255 0.357032 7.65254 0 7.47457C0 7.47457 0 0.177963 0 0.177963ZM1.42814 6.58474C1.60665 6.58474 1.96367 6.58474 2.14219 6.58474C3.92735 6.58474 4.99846 5.69491 4.99846 3.73729C4.99846 2.13559 4.10588 1.06779 2.32072 1.06779C1.96368 1.06779 1.60665 1.06779 1.42814 1.06779V6.58474Z" transform="translate(134.244 54.4575)" fill="#F7F7F7"/>
<path d="M5.71252 7.29661C5.35549 7.47457 4.64141 7.65255 3.74883 7.65255C1.42812 7.65255 5.44788e-06 6.22881 5.44788e-06 3.91525C5.44788e-06 1.42372 1.78516 0 3.92736 0C4.81994 0 5.534 0.177961 5.71252 0.355927L5.35549 1.42373C4.99846 1.24577 4.46291 1.06779 3.92736 1.06779C2.32071 1.06779 1.24961 1.95762 1.24961 3.73729C1.24961 5.33898 2.14219 6.40678 3.92736 6.40678C4.46291 6.40678 4.99846 6.22882 5.35549 6.05085C5.35549 6.22882 5.71252 7.29661 5.71252 7.29661Z" transform="translate(145.491 54.4575)" fill="#F7F7F7"/>
<path d="M6.96214 3.73729C6.96214 6.22881 5.3555 7.65255 3.39182 7.65255C1.24962 7.65255 -5.44788e-06 6.05084 -5.44788e-06 3.91525C-5.44788e-06 1.60169 1.42812 0 3.57032 0C5.71251 0 6.96214 1.60169 6.96214 3.73729ZM1.42813 3.91525C1.42813 5.51694 2.14219 6.58474 3.57032 6.58474C4.81993 6.58474 5.71251 5.33898 5.71251 3.73729C5.71251 2.31356 4.99845 1.06779 3.57032 1.06779C2.14219 1.06779 1.42813 2.31355 1.42813 3.91525Z" transform="translate(152.453 54.4575)" fill="#F7F7F7"/>
<path d="M5.44788e-06 7.47457V0H1.60664L3.57033 3.2034C4.10588 4.09323 4.46291 4.98305 4.81994 5.69491C4.64142 4.62711 4.64141 3.73729 4.64141 2.66949V0H5.89105V7.47457H4.46291L2.49922 4.27119C1.96367 3.38136 1.60664 2.49153 1.07109 1.77966C1.07109 2.66949 1.07109 3.73729 1.07109 4.98306V7.65255C1.2496 7.47458 5.44788e-06 7.47457 5.44788e-06 7.47457Z" transform="translate(161.557 54.4575)" fill="#F7F7F7"/>
<path d="M-1.08958e-05 6.05085C0.357022 6.22882 1.07109 6.58474 1.78515 6.58474C2.67773 6.58474 3.21329 6.22881 3.21329 5.51695C3.21329 4.98305 2.85626 4.62712 1.96368 4.27119C0.714065 3.91526 -1.08958e-05 3.20338 -1.08958e-05 2.13559C-1.08958e-05 0.889825 1.07109 0 2.67773 0C3.57031 0 4.10586 0.177961 4.46289 0.355927L4.10587 1.42373C3.92735 1.24577 3.3918 1.06779 2.67773 1.06779C1.78515 1.06779 1.42812 1.60169 1.42812 1.95762C1.42812 2.49152 1.78516 2.84746 2.85626 3.2034C4.10587 3.73729 4.81995 4.27119 4.81995 5.33898C4.81995 6.58475 3.92736 7.65255 1.96368 7.65255C1.24961 7.65255 0.357022 7.47458 -1.08958e-05 7.11864V6.05085Z" transform="translate(169.769 54.4575)" fill="#F7F7F7"/>
<path d="M2.14218 1.06779H-5.44788e-06V-2.71555e-06H5.71251V1.06779H3.57032V7.2966H2.14218V1.06779Z" transform="translate(175.66 54.6353)" fill="#F7F7F7"/>
<path d="M0.178505 0.177963C0.714054 0.177963 1.42814 0 2.32072 0C3.39182 0 4.10586 0.177972 4.64141 0.533904C4.99844 0.889836 5.35549 1.42373 5.35549 1.95762C5.35549 2.84745 4.64142 3.55932 3.92736 3.91525C4.46291 4.09321 4.81995 4.62712 4.99847 5.33898C5.17698 6.22881 5.35548 7.11864 5.53399 7.47457H4.10588C3.92737 7.2966 3.74885 6.58474 3.57033 5.69491C3.39181 4.80508 3.03478 4.44915 2.14219 4.44915H1.42814V7.47457H5.44788e-06L0.178505 0.177963ZM1.42814 3.55932H2.32072C3.2133 3.55932 3.74883 3.02543 3.74883 2.31356C3.74883 1.42373 3.2133 1.06779 2.32072 1.06779C1.96369 1.06779 1.60666 1.06779 1.42814 1.06779V3.55932Z" transform="translate(182.979 54.4575)" fill="#F7F7F7"/>
<path d="M1.24962 -2.71555e-06V4.27119C1.24962 5.69492 1.78516 6.40677 2.85626 6.40677C3.92736 6.40677 4.46289 5.69492 4.46289 4.27119V-2.71555e-06H5.89103V4.27119C5.89103 6.58475 4.64142 7.65255 2.85626 7.65255C1.0711 7.65255 -1.08958e-05 6.76271 -1.08958e-05 4.27119V-2.71555e-06H1.24962Z" transform="translate(190.298 54.6353)" fill="#F7F7F7"/>
<path d="M5.71251 7.29661C5.35548 7.47457 4.64143 7.65255 3.74885 7.65255C1.42814 7.65255 -5.44788e-06 6.22881 -5.44788e-06 3.91525C-5.44788e-06 1.42372 1.78515 0 3.92735 0C4.81993 0 5.53399 0.177961 5.71251 0.355927L5.35548 1.42373C4.99845 1.24577 4.46289 1.06779 3.92735 1.06779C2.3207 1.06779 1.2496 1.95762 1.2496 3.73729C1.2496 5.33898 2.14218 6.40678 3.92735 6.40678C4.46289 6.40678 4.99845 6.22882 5.35548 6.05085L5.71251 7.29661Z" transform="translate(197.974 54.4575)" fill="#F7F7F7"/>
<path d="M2.14219 1.06779H5.44788e-06V-2.71555e-06H5.53399V1.06779H3.3918V7.2966H2.14219V1.06779Z" transform="translate(205.294 54.6353)" fill="#F7F7F7"/>
<path d="M1.42812 7.2966H-1.08958e-05V-2.71555e-06H1.42812V7.2966Z" transform="translate(212.613 54.6353)" fill="#F7F7F7"/>
<path d="M6.96213 3.73729C6.96213 6.22881 5.35548 7.65255 3.3918 7.65255C1.24961 7.65255 5.44788e-06 6.05084 5.44788e-06 3.91525C5.44788e-06 1.60169 1.42814 0 3.57033 0C5.71253 0 6.96213 1.60169 6.96213 3.73729ZM1.42814 3.91525C1.42814 5.51694 2.1422 6.58474 3.57033 6.58474C4.81994 6.58474 5.71252 5.33898 5.71252 3.73729C5.71252 2.31356 4.99846 1.06779 3.57033 1.06779C2.1422 1.06779 1.42814 2.31355 1.42814 3.91525Z" transform="translate(216.005 54.4575)" fill="#F7F7F7"/>
<path d="M-1.08958e-05 7.47457V0H1.60665L3.57031 3.2034C4.10586 4.09323 4.46292 4.98305 4.81995 5.69491C4.81995 4.62711 4.64142 3.73729 4.64142 2.66949V0H5.89103V7.47457H4.46289L2.49923 4.27119C1.96368 3.38136 1.60665 2.49153 1.0711 1.77966C1.0711 2.66949 1.0711 3.73729 1.0711 4.98306V7.65255C1.24961 7.47458 -1.08958e-05 7.47457 -1.08958e-05 7.47457Z" transform="translate(225.109 54.4575)" fill="#F7F7F7"/>
<path d="M28.7411 19.2203C31.2403 21 33.204 23.3136 35.1677 25.6271C34.2751 28.1186 33.3825 30.2542 32.1329 32.5678C32.49 32.0339 33.0255 31.5 33.3825 30.9661C34.2751 29.5424 35.3462 28.1186 36.2388 26.6949C41.5943 18.3305 45.8787 9.25424 49.449 2.71555e-06H2.72394e-06V18.6864C3.21329 16.1949 7.14064 14.5932 11.2465 14.2373C17.6731 13.5254 23.5641 15.4831 28.7411 19.2203Z" transform="translate(0.178589)" fill="#D21515"/>
<path d="M17.8577 0.545576C13.0378 -0.878152 6.7897 0.545576 3.21937 4.1049C-0.886501 8.19812 -1.06501 16.0286 2.68383 20.4778C7.50377 26.3507 16.2511 25.1049 22.1421 21.7235C25.8909 19.5879 28.9257 16.7405 31.6035 13.3591C28.2116 8.19812 23.9273 2.32524 17.8577 0.545576Z" transform="translate(0.172485 19.7422)" fill="#D21515"/>
<path d="M63.0162 2.71555e-06C58.5533 9.25424 53.5549 18.3305 47.8423 26.8729C46.2357 29.3644 44.4505 31.8559 42.6654 34.3475C45.7002 40.0424 49.092 46.0932 51.9482 52.1441H41.5943C39.9876 49.1186 38.381 45.9153 36.7743 42.8898C38.5595 40.5763 39.9876 38.6186 41.5943 35.5932C41.7728 35.4153 41.7728 35.2373 41.9513 35.0593C40.1662 37.3729 38.2025 39.5085 36.0603 41.6441C30.5263 46.9831 24.0997 51.0763 16.245 51.9661C10.5325 52.678 4.46291 51.2542 5.44788e-06 47.6949V63H62.8377L63.0162 2.71555e-06Z" fill="#D21515"/>
</svg>
