<svg viewBox="0 0 30 29" fill="none" xmlns="http://www.w3.org/2000/svg">
<path d="M17.382 1.67456C16.743 1.95902 16.0553 2.15089 15.3337 2.23676C16.0705 1.79506 16.6354 1.09541 16.9018 0.260778C16.2127 0.670321 15.4498 0.967495 14.6372 1.12792C13.9869 0.433924 13.06 7.54855e-08 12.0343 7.54855e-08C10.0651 7.54855e-08 8.46852 1.59895 8.46852 3.57139C8.46852 3.8509 8.49992 4.12334 8.56097 4.38517C5.59711 4.23606 2.96915 2.8145 1.21024 0.653713C0.903271 1.18092 0.727557 1.79435 0.727557 2.44948C0.727557 3.68835 1.35702 4.78164 2.31393 5.42193C1.72962 5.4032 1.17955 5.24242 0.698624 4.97493C0.698271 4.98977 0.698271 5.00497 0.698271 5.02016C0.698271 6.7502 1.92757 8.19332 3.5591 8.52194C3.25989 8.60321 2.94481 8.64703 2.61949 8.64703C2.38944 8.64703 2.16609 8.62477 1.94838 8.58272C2.40249 10.0015 3.71929 11.0343 5.27955 11.0629C4.05908 12.0209 2.52175 12.5919 0.850698 12.5919C0.563133 12.5919 0.279097 12.575 -4.17254e-08 12.5417C1.57861 13.5555 3.4529 14.1463 5.46656 14.1463C12.0262 14.1463 15.6128 8.70463 15.6128 3.98517C15.6128 3.8304 15.6097 3.67599 15.603 3.52263C16.2995 3.02015 16.9042 2.39082 17.382 1.67456Z" transform="translate(6.55786 7.78027)" fill="white"/>
<path d="M28.0064 14.5C28.0064 22.2401 21.8409 28.5 14.2532 28.5C6.66558 28.5 0.5 22.2401 0.5 14.5C0.5 6.75989 6.66558 0.5 14.2532 0.5C21.8409 0.5 28.0064 6.75989 28.0064 14.5Z" transform="translate(0.995605)" stroke="white"/>
</svg>
