<svg viewBox="0 0 29 29" fill="none" xmlns="http://www.w3.org/2000/svg">
<path d="M13.8153 2.34286C13.8153 1.0996 12.9162 0.0994609 11.8052 0.0994609C10.3004 0.027628 8.7657 0 7.19839 0C7.1169 0 7.03541 0 6.95392 0C6.87243 0 6.79094 0 6.70945 0C5.14486 0 3.60743 0.027628 2.10259 0.0994609C0.994338 0.0994609 0.0952404 1.10512 0.0952404 2.34838C0.0273327 3.33194 -0.00254674 4.3155 0.000169573 5.29906C-0.00254674 6.28262 0.0273327 7.26617 0.0925241 8.2525C0.0925241 9.49576 0.991622 10.5042 2.09988 10.5042C3.68077 10.5788 5.3024 10.6119 6.9512 10.6092C8.60272 10.6147 10.2189 10.5815 11.8025 10.5042C12.9135 10.5042 13.8126 9.49576 13.8126 8.2525C13.8778 7.26617 13.9077 6.28262 13.905 5.29629C13.9104 4.31274 13.8805 3.32918 13.8153 2.34286ZM5.62293 8.00937V2.58046L9.56158 5.29353L5.62293 8.00937Z" transform="translate(7.44653 9.19531)" fill="white"/>
<path d="M28.0064 14.5C28.0064 22.2401 21.8409 28.5 14.2532 28.5C6.66558 28.5 0.5 22.2401 0.5 14.5C0.5 6.75989 6.66558 0.5 14.2532 0.5C21.8409 0.5 28.0064 6.75989 28.0064 14.5Z" transform="translate(0.493652)" stroke="white"/>
</svg>
